<?xml version="1.0" encoding="utf-8"?>
<!-- Generator: Adobe Illustrator 19.2.1, SVG Export Plug-In . SVG Version: 6.00 Build 0)  -->
<svg version="1.1" id="Layer_1" xmlns="http://www.w3.org/2000/svg" xmlns:xlink="http://www.w3.org/1999/xlink" x="0px" y="0px"
	 viewBox="0 0 2985.3 2205.2" style="enable-background:new 0 0 2985.3 2205.2;" xml:space="preserve">
<style type="text/css">
	.st0{fill:none;stroke:#000000;stroke-miterlimit:10;}
	.st1{font-family:'MyriadPro-Regular';}
	.st2{font-size:86.1014px;}
	.st3{fill:none;stroke:#999999;stroke-miterlimit:10;stroke-dasharray:1,5;}
	.st4{stroke:#000000;stroke-miterlimit:10;}
	.st5{stroke:#000000;stroke-width:0.25;stroke-miterlimit:10;}
</style>
<line class="st0" x1="231.3" y1="1932.8" x2="2973.3" y2="1932.8"/>
<g>
</g>
<g>
	<text transform="matrix(1.0332 0 0 1 142.7358 1979.7599)" class="st1 st2">0</text>
	<text transform="matrix(1.0332 0 0 1 142.7358 1684.1398)" class="st1 st2">5</text>
	<text transform="matrix(1.0332 0 0 1 97.102 1388.5157)" class="st1 st2">10</text>
	<text transform="matrix(1.0332 0 0 1 97.102 1092.9132)" class="st1 st2">15</text>
	<text transform="matrix(1.0332 0 0 1 97.102 797.2989)" class="st1 st2">20</text>
	<text transform="matrix(1.0332 0 0 1 97.102 501.6847)" class="st1 st2">25</text>
	<text transform="matrix(1.0332 0 0 1 97.102 206.0724)" class="st1 st2">30</text>
</g>
<line class="st0" x1="230.8" y1="1933.3" x2="230.8" y2="156.3"/>
<g>
	<line class="st3" x1="231.3" y1="1932.8" x2="2973.3" y2="1932.8"/>
	<line class="st3" x1="231.3" y1="1638.8" x2="2973.3" y2="1638.8"/>
	<line class="st3" x1="231.3" y1="1341.8" x2="2973.3" y2="1341.8"/>
	<line class="st3" x1="231.3" y1="1048.8" x2="2973.3" y2="1048.8"/>
	<line class="st3" x1="231.3" y1="751.8" x2="2973.3" y2="751.8"/>
	<line class="st3" x1="231.3" y1="450.8" x2="2973.3" y2="450.8"/>
	<line class="st3" x1="231.3" y1="153.8" x2="2973.3" y2="153.8"/>
</g>
<g>
</g>
<g>
	<rect x="249.8" y="687.8" class="st4" width="126" height="1245"/>
	<rect x="433.8" y="450.8" class="st4" width="122" height="1482"/>
	<rect x="598.8" y="687.8" class="st4" width="124" height="1245"/>
	<rect x="769.8" y="1106.8" class="st4" width="128" height="826"/>
	<rect x="939.8" y="1048.8" class="st4" width="128" height="884"/>
	<rect x="1105.8" y="807.8" class="st4" width="130" height="1125"/>
	<rect x="1280.8" y="687.8" class="st4" width="126" height="1245"/>
	<rect x="1453.8" y="450.8" class="st4" width="119" height="1482"/>
	<rect x="1619.8" y="1583.8" class="st4" width="137" height="349"/>
	<rect x="1789.8" y="1341.8" class="st4" width="135" height="591"/>
	<rect x="1965.8" y="1229.8" class="st4" width="134" height="703"/>
	<rect x="2142.8" y="329.8" class="st4" width="121" height="1603"/>
	<rect x="2308.8" y="218.8" class="st4" width="126" height="1714"/>
	<rect x="2478.8" y="923.8" class="st4" width="117" height="1009"/>
	<rect x="2658.8" y="751.8" class="st4" width="110" height="1181"/>
	<rect x="2824.8" y="329.8" class="st4" width="113" height="1603"/>
</g>
<g>
	<g>
	</g>
</g>
<text transform="matrix(1.0332 0 0 1 2833.4009 2054.1084)" class="st5 st1 st2">&apos;16</text>
<text transform="matrix(1.0332 0 0 1 2662.0327 2054.1084)" class="st5 st1 st2">&apos;15</text>
<text transform="matrix(1.0332 0 0 1 2490.6675 2054.1084)" class="st5 st1 st2">&apos;14</text>
<text transform="matrix(1.0332 0 0 1 2319.3052 2054.1084)" class="st5 st1 st2">&apos;13</text>
<text transform="matrix(1.0332 0 0 1 2147.9312 2054.1084)" class="st5 st1 st2">&apos;12</text>
<text transform="matrix(1.0332 0 0 1 1976.5687 2054.1084)" class="st5 st1 st2">&apos;11</text>
<text transform="matrix(1.0332 0 0 1 1805.1947 2054.1084)" class="st5 st1 st2">&apos;10</text>
<text transform="matrix(1.0332 0 0 1 1633.8285 2054.1084)" class="st5 st1 st2">&apos;09</text>
<text transform="matrix(1.0332 0 0 1 1462.4623 2054.1084)" class="st5 st1 st2">&apos;08</text>
<text transform="matrix(1.0332 0 0 1 1291.0951 2054.1084)" class="st5 st1 st2">&apos;07</text>
<text transform="matrix(1.0332 0 0 1 1119.7318 2054.1084)" class="st5 st1 st2">&apos;06</text>
<text transform="matrix(1.0332 0 0 1 948.3657 2054.1084)" class="st5 st1 st2">&apos;05</text>
<text transform="matrix(1.0332 0 0 1 776.9965 2054.1084)" class="st5 st1 st2">&apos;04</text>
<text transform="matrix(1.0332 0 0 1 605.6323 2054.1084)" class="st5 st1 st2">&apos;03</text>
<text transform="matrix(1.0332 0 0 1 434.2661 2054.1084)" class="st5 st1 st2">&apos;02</text>
<text transform="matrix(1.0332 0 0 1 262.9008 2054.1084)" class="st5 st1 st2">&apos;01</text>
</svg>
