<?xml version="1.0" encoding="utf-8"?>
<!-- Generator: Adobe Illustrator 19.1.0, SVG Export Plug-In . SVG Version: 6.00 Build 0)  -->
<svg version="1.1" id="Layer_1" xmlns="http://www.w3.org/2000/svg" xmlns:xlink="http://www.w3.org/1999/xlink" x="0px" y="0px"
	 viewBox="0 0 669.9 412.9" style="enable-background:new 0 0 669.9 412.9;" xml:space="preserve">
<style type="text/css">
	.st0{font-family:'MyriadPro-Regular';}
	.st1{font-size:26.0962px;}
	.st2{fill:none;stroke:#000000;stroke-miterlimit:10;}
	.st3{fill:#D80F1E;stroke:#000000;stroke-width:0.5;stroke-miterlimit:10;}
	.st4{fill:#FFFFFF;stroke:#000000;stroke-width:0.5;stroke-miterlimit:10;}
	.st5{fill:#727070;stroke:#000000;stroke-width:0.5;stroke-miterlimit:10;}
	.st6{font-family:'Athelas-Regular';}
	.st7{opacity:0.3;}
	.st8{opacity:0.5;}
	.st9{fill:#808080;}
	.st10{fill:#F7F5F5;stroke:#000000;stroke-miterlimit:10;}
</style>
<text transform="matrix(1 0 0 1 81.3695 497.7299)" class="st0" style="font-size:18px;">Dem</text>
<text transform="matrix(1 0 0 1 81.3695 497.7299)" class="st0" style="font-size:18px;">Dem</text>
<text transform="matrix(1 0 0 1 81.3695 497.7299)" class="st0" style="font-size:18px;">Dem</text>
<text transform="matrix(1 0 0 1 81.3695 497.7299)" class="st0" style="font-size:18px;">Dem</text>
<text transform="matrix(1 0 0 1 81.3695 497.7299)" class="st0" style="font-size:18px;">Dem</text>
<text transform="matrix(1 0 0 1 81.3695 497.7299)" class="st0" style="font-size:18px;">Dem</text>
<text transform="matrix(1 0 0 1 81.3695 497.7299)" class="st0" style="font-size:18px;">Dem</text>
<g>
	<g>
		<g>
			<text transform="matrix(1 0 0 1 86.3731 406.4021)" class="st0 st1">0</text>
			<text transform="matrix(1 0 0 1 184.3297 406.4021)" class="st0 st1">100</text>
			<text transform="matrix(1 0 0 1 295.6734 406.4021)" class="st0 st1">200</text>
			<text transform="matrix(1 0 0 1 407.0167 406.4021)" class="st0 st1">300</text>
			<text transform="matrix(1 0 0 1 518.3615 406.4021)" class="st0 st1">400</text>
			<text transform="matrix(1 0 0 1 629.7042 406.4021)" class="st0 st1">500</text>
		</g>
		<line class="st2" x1="93.1" y1="380.9" x2="649.8" y2="380.9"/>
		<g>
			<g>
				<line class="st2" x1="93.1" y1="380.9" x2="93.1" y2="371.4"/>
				<line class="st2" x1="204.4" y1="380.9" x2="204.4" y2="371.4"/>
				<line class="st2" x1="315.8" y1="380.9" x2="315.8" y2="371.4"/>
				<line class="st2" x1="427.1" y1="380.9" x2="427.1" y2="371.4"/>
				<line class="st2" x1="538.4" y1="380.9" x2="538.4" y2="371.4"/>
				<line class="st2" x1="649.8" y1="380.9" x2="649.8" y2="371.4"/>
			</g>
			<g>
			</g>
		</g>
	</g>
	<g>
		<line class="st2" x1="93.1" y1="380.9" x2="93.1" y2="0"/>
		<g>
			<g>
				<line class="st2" x1="93.1" y1="365" x2="107" y2="365"/>
				<line class="st2" x1="93.1" y1="333.3" x2="107" y2="333.3"/>
				<line class="st2" x1="93.1" y1="301.5" x2="107" y2="301.5"/>
				<line class="st2" x1="93.1" y1="269.8" x2="107" y2="269.8"/>
				<line class="st2" x1="93.1" y1="238" x2="107" y2="238"/>
				<line class="st2" x1="93.1" y1="206.3" x2="107" y2="206.3"/>
				<line class="st2" x1="93.1" y1="174.6" x2="107" y2="174.6"/>
				<line class="st2" x1="93.1" y1="142.8" x2="107" y2="142.8"/>
				<line class="st2" x1="93.1" y1="111.1" x2="107" y2="111.1"/>
				<line class="st2" x1="93.1" y1="79.3" x2="107" y2="79.3"/>
				<line class="st2" x1="93.1" y1="47.6" x2="107" y2="47.6"/>
				<line class="st2" x1="93.1" y1="15.9" x2="107" y2="15.9"/>
			</g>
			<g>
			</g>
		</g>
	</g>
	<g>
		<g>
			<g>
				<rect x="381.4" y="3.2" class="st3" width="196" height="25.4"/>
				<rect x="323.5" y="34.9" class="st3" width="253.9" height="25.4"/>
				<rect x="325.8" y="66.7" class="st3" width="251.6" height="25.4"/>
				<rect x="329.1" y="98.4" class="st3" width="248.3" height="25.4"/>
				<rect x="332.5" y="130.1" class="st3" width="245" height="25.4"/>
				<rect x="322.4" y="161.9" class="st3" width="255" height="25.4"/>
				<rect x="318" y="193.6" class="st3" width="259.4" height="25.4"/>
				<rect x="351.4" y="225.4" class="st3" width="226" height="25.4"/>
				<rect x="379.2" y="257.1" class="st3" width="198.2" height="25.4"/>
				<rect x="308" y="288.8" class="st3" width="269.5" height="25.4"/>
				<rect x="316.9" y="320.6" class="st3" width="260.5" height="25.4"/>
				<rect x="302.4" y="352.3" class="st3" width="275" height="25.4"/>
			</g>
		</g>
		<g>
			<g>
				<rect x="380.3" y="3.2" class="st4" width="1.1" height="25.4"/>
				<rect x="322.4" y="34.9" class="st4" width="1.1" height="25.4"/>
				<rect x="323.5" y="66.7" class="st4" width="2.2" height="25.4"/>
				<rect x="328" y="98.4" class="st4" width="1.1" height="25.4"/>
				<rect x="330.2" y="130.1" class="st4" width="2.2" height="25.4"/>
				<rect x="321.3" y="161.9" class="st4" width="1.1" height="25.4"/>
				<rect x="316.9" y="193.6" class="st4" width="1.1" height="25.4"/>
				<rect x="351.4" y="225.4" class="st4" width="0" height="25.4"/>
				<rect x="379.2" y="257.1" class="st4" width="0" height="25.4"/>
				<rect x="308" y="288.8" class="st4" width="0" height="25.4"/>
				<rect x="316.9" y="320.6" class="st4" width="0" height="25.4"/>
				<rect x="302.4" y="352.3" class="st4" width="0" height="25.4"/>
			</g>
		</g>
		<g>
			<g>
				<rect x="93.1" y="3.2" class="st5" width="287.3" height="25.4"/>
				<rect x="93.1" y="34.9" class="st5" width="229.4" height="25.4"/>
				<rect x="93.1" y="66.7" class="st5" width="230.5" height="25.4"/>
				<rect x="93.1" y="98.4" class="st5" width="234.9" height="25.4"/>
				<rect x="93.1" y="130.1" class="st5" width="237.2" height="25.4"/>
				<rect x="93.1" y="161.9" class="st5" width="228.3" height="25.4"/>
				<rect x="93.1" y="193.6" class="st5" width="223.8" height="25.4"/>
				<rect x="93.1" y="225.4" class="st5" width="258.3" height="25.4"/>
				<rect x="93.1" y="257.1" class="st5" width="286.2" height="25.4"/>
				<rect x="93.1" y="288.8" class="st5" width="214.9" height="25.4"/>
				<rect x="93.1" y="320.6" class="st5" width="223.8" height="25.4"/>
				<rect x="93.1" y="352.3" class="st5" width="209.3" height="25.4"/>
			</g>
		</g>
	</g>
	<g>
		<g>
		</g>
		<g>
		</g>
		<g>
		</g>
	</g>
	<g>
		<text transform="matrix(1 0 0 1 12.6573 374.7957)"><tspan x="0" y="0" class="st6 st1">2015-</tspan><tspan x="52.7" y="0" class="st6 st1">1</tspan><tspan x="61.2" y="0" class="st6 st1">7</tspan></text>
		<text transform="matrix(1 0 0 1 12.4737 343.0554)" class="st6 st1">2013-15</text>
		<text transform="matrix(1 0 0 1 14.7965 311.3152)" class="st6 st1">2011-13</text>
		<text transform="matrix(1 0 0 1 7.5416 279.5759)" class="st6 st1">2009-11</text>
		<text transform="matrix(1 0 0 1 9.155273e-05 247.8357)" class="st6 st1">2007-09</text>
		<text transform="matrix(1 0 0 1 1.775 216.0954)" class="st6 st1">2005-07</text>
		<text transform="matrix(1 0 0 1 1.4615 184.3557)" class="st6 st1">2003-05</text>
		<text transform="matrix(1 0 0 1 3.7838 152.616)" class="st6 st1">2001-03</text>
		<text transform="matrix(1 0 0 1 8.2716 120.8757)"><tspan x="0" y="0" class="st6 st1">1</tspan><tspan x="8.2" y="0" class="st6 st1">99</tspan><tspan x="33" y="0" class="st6 st1">9-01</tspan></text>
		<text transform="matrix(1 0 0 1 7.6456 89.136)"><tspan x="0" y="0" class="st6 st1">1</tspan><tspan x="8.2" y="0" class="st6 st1">9</tspan><tspan x="20.6" y="0" class="st6 st1">97-</tspan><tspan x="51.8" y="0" class="st6 st1">9</tspan><tspan x="64.2" y="0" class="st6 st1">9</tspan></text>
		<text transform="matrix(1 0 0 1 9.5772 57.3957)"><tspan x="0" y="0" class="st6 st1">1</tspan><tspan x="8.2" y="0" class="st6 st1">9</tspan><tspan x="20.6" y="0" class="st6 st1">9</tspan><tspan x="32.9" y="0" class="st6 st1">5-97</tspan></text>
		<text transform="matrix(1 0 0 1 9.2638 25.656)"><tspan x="0" y="0" class="st6 st1">1</tspan><tspan x="8.2" y="0" class="st6 st1">9</tspan><tspan x="20.6" y="0" class="st6 st1">93-</tspan><tspan x="52.1" y="0" class="st6 st1">9</tspan><tspan x="64.4" y="0" class="st6 st1">5</tspan></text>
	</g>
</g>
<rect x="-70" y="9.2" style="fill:none;" width="40" height="114.7"/>
<text transform="matrix(1 0 0 1 -69.9607 93.2294)" class="st7 st6" style="font-size:120px;">{</text>
<rect x="-70" y="134.2" style="fill:none;" width="40" height="114.7"/>
<text transform="matrix(1 0 0 1 -69.9607 218.2294)" class="st7 st6" style="font-size:120px;">{</text>
<rect x="-70" y="264.9" style="fill:none;" width="40" height="114.7"/>
<text transform="matrix(1 0 0 1 -69.9607 348.8961)" class="st7 st6" style="font-size:120px;">{</text>
<rect x="-152" y="50.6" style="fill:none;" width="69.3" height="19.3"/>
<text transform="matrix(1 0 0 1 -151.9609 65.4726)" class="st8 st0" style="font-size:21px;">Clinton</text>
<rect x="-149" y="172.2" style="fill:none;" width="69.3" height="19.3"/>
<text transform="matrix(1 0 0 1 -148.9608 187.1393)" class="st8 st0" style="font-size:21px;">Bush</text>
<rect x="-152" y="306.9" style="fill:none;" width="69.3" height="19.3"/>
<text transform="matrix(1 0 0 1 -151.9608 321.8059)" class="st8 st0" style="font-size:21px;">Obama</text>
<rect x="87.4" y="451.7" class="st9" width="26" height="24"/>
<rect x="281.7" y="451.7" class="st10" width="26" height="24"/>
<rect x="181.7" y="451.7" class="st3" width="26" height="24"/>
<text transform="matrix(1 0 0 1 81.3695 497.7299)" class="st0" style="font-size:18px;">Dem</text>
<text transform="matrix(1 0 0 1 181.7031 497.7296)" class="st0" style="font-size:18px;">Rep</text>
<text transform="matrix(1 0 0 1 281.7032 497.7299)" class="st0" style="font-size:18px;">Ind</text>
</svg>
