<svg id="Layer_1" data-name="Layer 1" xmlns="http://www.w3.org/2000/svg" viewBox="0 0 520.94 430.35"><defs><style>.cls-1{fill:none;}.cls-1,.cls-3{stroke:#000;stroke-miterlimit:10;}.cls-2{font-size:21.19px;fill:#231f20;font-family:Candara;}.cls-3{fill:#7f5939;stroke-width:0.5px;}</style></defs><title>Ferdinand</title><line class="cls-1" x1="59.37" y1="396.01" x2="511.39" y2="396.01"/><line class="cls-1" x1="59.37" y1="396.01" x2="59.37" y2="386.7"/><line class="cls-1" x1="89.5" y1="396.01" x2="89.5" y2="386.7"/><line class="cls-1" x1="119.64" y1="396.01" x2="119.64" y2="386.7"/><line class="cls-1" x1="149.77" y1="396.01" x2="149.77" y2="386.7"/><line class="cls-1" x1="179.91" y1="396.01" x2="179.91" y2="386.7"/><line class="cls-1" x1="210.04" y1="396.01" x2="210.04" y2="386.7"/><line class="cls-1" x1="240.18" y1="396.01" x2="240.18" y2="386.7"/><line class="cls-1" x1="270.31" y1="396.01" x2="270.31" y2="386.7"/><line class="cls-1" x1="300.45" y1="396.01" x2="300.45" y2="386.7"/><line class="cls-1" x1="330.58" y1="396.01" x2="330.58" y2="386.7"/><line class="cls-1" x1="360.72" y1="396.01" x2="360.72" y2="386.7"/><line class="cls-1" x1="390.85" y1="396.01" x2="390.85" y2="386.7"/><line class="cls-1" x1="420.99" y1="396.01" x2="420.99" y2="386.7"/><line class="cls-1" x1="451.12" y1="396.01" x2="451.12" y2="386.7"/><line class="cls-1" x1="481.26" y1="396.01" x2="481.26" y2="386.7"/><line class="cls-1" x1="511.39" y1="396.01" x2="511.39" y2="386.7"/><text class="cls-2" transform="translate(40.67 403.95)">0</text><text class="cls-2" transform="translate(9.98 357.44)">1000</text><text class="cls-2" transform="translate(7.6 310.92)">2000</text><text class="cls-2" transform="translate(7.1 264.4)">3000</text><text class="cls-2" transform="translate(6.09 217.88)">4000</text><text class="cls-2" transform="translate(6.98 171.36)">5000</text><text class="cls-2" transform="translate(5.7 124.84)">6000</text><text class="cls-2" transform="translate(7.38 78.32)">7000</text><text class="cls-2" transform="translate(5.73 31.8)">8000</text><line class="cls-1" x1="59.37" y1="396.01" x2="59.37" y2="23.85"/><line class="cls-1" x1="59.37" y1="396.01" x2="70.67" y2="396.01"/><line class="cls-1" x1="59.37" y1="349.49" x2="70.67" y2="349.49"/><line class="cls-1" x1="59.37" y1="302.97" x2="70.67" y2="302.97"/><line class="cls-1" x1="59.37" y1="256.45" x2="70.67" y2="256.45"/><line class="cls-1" x1="59.37" y1="209.93" x2="70.67" y2="209.93"/><line class="cls-1" x1="59.37" y1="163.41" x2="70.67" y2="163.41"/><line class="cls-1" x1="59.37" y1="116.89" x2="70.67" y2="116.89"/><line class="cls-1" x1="59.37" y1="70.37" x2="70.67" y2="70.37"/><line class="cls-1" x1="59.37" y1="23.85" x2="70.67" y2="23.85"/><rect class="cls-3" x="63.59" y="360.42" width="21.7" height="35.59"/><rect class="cls-3" x="93.72" y="318.46" width="21.7" height="77.55"/><rect class="cls-3" x="123.86" y="386.61" width="21.7" height="9.4"/><rect class="cls-3" x="153.99" y="330.97" width="21.7" height="65.03"/><rect class="cls-3" x="184.13" y="326.56" width="21.7" height="69.45"/><rect class="cls-3" x="214.26" y="286.5" width="21.7" height="109.51"/><rect class="cls-3" x="244.4" y="351.21" width="21.7" height="44.8"/><rect class="cls-3" x="274.53" y="258.64" width="21.7" height="137.37"/><rect class="cls-3" x="304.67" y="212.21" width="21.7" height="183.8"/><rect class="cls-3" x="334.8" y="261.01" width="21.7" height="135"/><rect class="cls-3" x="364.94" y="205.74" width="21.7" height="190.26"/><rect class="cls-3" x="395.07" y="90.89" width="21.7" height="305.12"/><rect class="cls-3" x="425.21" y="164.9" width="21.7" height="231.11"/><rect class="cls-3" x="455.34" y="164.71" width="21.7" height="231.29"/><rect class="cls-3" x="485.47" y="163.04" width="21.7" height="232.97"/><text class="cls-2" transform="translate(487.41 417.71)">15</text><text class="cls-2" transform="translate(456.84 417.71)">14</text><text class="cls-2" transform="translate(427.2 417.71)">13</text><text class="cls-2" transform="translate(397.32 417.71)">12</text><text class="cls-2" transform="translate(368.38 417.71)">11</text><text class="cls-2" transform="translate(336.13 417.71)">10</text><text class="cls-2" transform="translate(303.89 417.71)">09</text><text class="cls-2" transform="translate(273.73 417.71)">08</text><text class="cls-2" transform="translate(244.42 417.71)">07</text><text class="cls-2" transform="translate(213.45 417.71)">06</text><text class="cls-2" transform="translate(183.95 417.71)">05</text><text class="cls-2" transform="translate(153.37 417.71)">04</text><text class="cls-2" transform="translate(123.74 417.71)">03</text><text class="cls-2" transform="translate(93.86 417.71)">02</text><text class="cls-2" transform="translate(64.91 417.71)">01</text></svg>