<svg id="Layer_1" data-name="Layer 1" xmlns="http://www.w3.org/2000/svg" width="520" height="430" viewBox="0 0 520 430">
  <defs>
    <style>
      .cls-1 {
        fill: none;
        stroke: #000;
        stroke-miterlimit: 10;
      }

      .cls-2 {
        font-size: 20px;
        fill: #231f20;
        font-family: Candara;
      }

      .cls-3 {
        fill: #7f5939;
      }
    </style>
  </defs>
  <title>jackson</title>
  <g>
    <line class="cls-1" x1="68.5" y1="392" x2="477.5" y2="392"/>
    <g>
      <line class="cls-1" x1="68.5" y1="392" x2="68.5" y2="383.31"/>
      <line class="cls-1" x1="95.77" y1="392" x2="95.77" y2="383.31"/>
      <line class="cls-1" x1="123.03" y1="392" x2="123.03" y2="383.31"/>
      <line class="cls-1" x1="150.3" y1="392" x2="150.3" y2="383.31"/>
      <line class="cls-1" x1="177.57" y1="392" x2="177.57" y2="383.31"/>
      <line class="cls-1" x1="204.83" y1="392" x2="204.83" y2="383.31"/>
      <line class="cls-1" x1="232.1" y1="392" x2="232.1" y2="383.31"/>
      <line class="cls-1" x1="259.37" y1="392" x2="259.37" y2="383.31"/>
      <line class="cls-1" x1="286.63" y1="392" x2="286.63" y2="383.31"/>
      <line class="cls-1" x1="313.9" y1="392" x2="313.9" y2="383.31"/>
      <line class="cls-1" x1="341.17" y1="392" x2="341.17" y2="383.31"/>
      <line class="cls-1" x1="368.43" y1="392" x2="368.43" y2="383.31"/>
      <line class="cls-1" x1="395.7" y1="392" x2="395.7" y2="383.31"/>
      <line class="cls-1" x1="422.97" y1="392" x2="422.97" y2="383.31"/>
      <line class="cls-1" x1="450.23" y1="392" x2="450.23" y2="383.31"/>
      <line class="cls-1" x1="477.5" y1="392" x2="477.5" y2="383.31"/>
    </g>
  </g>
  <g>
    <g>
      <text class="cls-2" transform="translate(51.12 399.19)">0</text>
      <text class="cls-2" transform="translate(19.33 312.31)">5000</text>
      <text class="cls-2" transform="translate(11.17 225.44)">10000</text>
      <text class="cls-2" transform="translate(12.33 138.56)">15000</text>
      <text class="cls-2" transform="translate(8.93 51.69)">20000</text>
    </g>
    <line class="cls-1" x1="68.5" y1="392" x2="68.5" y2="44.5"/>
    <g>
      <line class="cls-1" x1="68.5" y1="392" x2="78.73" y2="392"/>
      <line class="cls-1" x1="68.5" y1="305.13" x2="78.73" y2="305.13"/>
      <line class="cls-1" x1="68.5" y1="218.25" x2="78.73" y2="218.25"/>
      <line class="cls-1" x1="68.5" y1="131.38" x2="78.73" y2="131.38"/>
      <line class="cls-1" x1="68.5" y1="44.5" x2="78.73" y2="44.5"/>
    </g>
  </g>
  <g>
    <rect class="cls-3" x="72.32" y="360.69" width="19.63" height="31.31"/>
    <rect class="cls-3" x="99.58" y="353.65" width="19.63" height="38.35"/>
    <rect class="cls-3" x="126.85" y="376.97" width="19.63" height="15.03"/>
    <rect class="cls-3" x="154.12" y="374.63" width="19.63" height="17.38"/>
    <rect class="cls-3" x="181.38" y="369.1" width="19.63" height="22.9"/>
    <rect class="cls-3" x="208.65" y="317.95" width="19.63" height="74.05"/>
    <rect class="cls-3" x="235.92" y="291.23" width="19.63" height="100.77"/>
    <rect class="cls-3" x="263.18" y="277.2" width="19.63" height="114.8"/>
    <rect class="cls-3" x="290.45" y="259.86" width="19.63" height="132.14"/>
    <rect class="cls-3" x="317.72" y="243.69" width="19.63" height="148.31"/>
    <rect class="cls-3" x="344.98" y="58.54" width="19.63" height="333.46"/>
    <rect class="cls-3" x="372.25" y="262.19" width="19.63" height="129.81"/>
    <rect class="cls-3" x="399.52" y="235.09" width="19.63" height="156.91"/>
    <rect class="cls-3" x="426.78" y="224.38" width="19.63" height="167.62"/>
    <rect class="cls-3" x="454.05" y="284.59" width="19.63" height="107.41"/>
  </g>
  <g>
    <text class="cls-2" transform="translate(450.57 411.81)">15<tspan x="16.82" y="0">&apos;</tspan><tspan x="21.5" y="0">&apos;</tspan></text>
    <text class="cls-2" transform="translate(422.88 411.81)">14<tspan x="17.66" y="0">&apos;</tspan><tspan x="22.34" y="0">&apos;</tspan></text>
    <text class="cls-2" transform="translate(396.09 411.81)">13<tspan x="16.71" y="0">&apos;</tspan><tspan x="21.4" y="0">&apos;</tspan></text>
    <text class="cls-2" transform="translate(369.06 411.81)">12<tspan x="16.23" y="0">&apos;</tspan><tspan x="20.92" y="0">&apos;</tspan></text>
    <text class="cls-2" transform="translate(342.92 411.81)">11<tspan x="13.98" y="0">&apos;</tspan><tspan x="18.67" y="0">&apos;</tspan></text>
    <text class="cls-2" transform="translate(313.66 411.81)">10<tspan x="17.98" y="0">&apos;</tspan><tspan x="22.67" y="0">&apos;</tspan></text>
    <text class="cls-2" transform="translate(284.4 411.81)">09<tspan x="21.95" y="0">&apos;</tspan><tspan x="26.64" y="0">&apos;</tspan></text>
    <text class="cls-2" transform="translate(257.12 411.81)">08<tspan x="21.99" y="0">&apos;</tspan><tspan x="26.68" y="0">&apos;</tspan></text>
    <text class="cls-2" transform="translate(230.63 411.81)">07<tspan x="20.44" y="0">&apos;</tspan><tspan x="25.13" y="0">&apos;</tspan></text>
    <text class="cls-2" transform="translate(202.57 411.81)">06<tspan x="22.02" y="0">&apos;</tspan><tspan x="26.71" y="0">&apos;</tspan></text>
    <text class="cls-2" transform="translate(175.91 411.81)">05<tspan x="20.81" y="0">&apos;</tspan><tspan x="25.5" y="0">&apos;</tspan></text>
    <text class="cls-2" transform="translate(148.22 411.81)">04<tspan x="21.65" y="0">&apos;</tspan><tspan x="26.34" y="0">&apos;</tspan></text>
    <text class="cls-2" transform="translate(121.43 411.81)">03<tspan x="20.7" y="0">&apos;</tspan><tspan x="25.39" y="0">&apos;</tspan></text>
    <text class="cls-2" transform="translate(94.4 411.81)">02<tspan x="20.22" y="0">&apos;</tspan><tspan x="24.91" y="0">&apos;</tspan></text>
    <text class="cls-2" transform="translate(68.26 411.81)">01<tspan x="17.98" y="0">&apos;</tspan><tspan x="22.67" y="0">&apos;</tspan></text>
  </g>
</svg>
