<svg id="Layer_1" data-name="Layer 1" xmlns="http://www.w3.org/2000/svg" width="520" height="520" viewBox="0 0 520 520">
  <defs>
    <style>
      .cls-1 {
        fill: none;
      }

      .cls-1, .cls-2 {
        stroke: #000;
      }

      .cls-1, .cls-2, .cls-4, .cls-5, .cls-7, .cls-8, .cls-9 {
        stroke-miterlimit: 10;
      }

      .cls-2, .cls-8 {
        fill: #4c4c4c;
      }

      .cls-3 {
        font-size: 20px;
        font-family: Candara;
      }

      .cls-4 {
        fill: #34601f;
        stroke: #34601f;
      }

      .cls-4, .cls-5, .cls-8 {
        stroke-linecap: round;
        stroke-width: 2px;
      }

      .cls-5 {
        fill: #754c24;
        stroke: #c69c6d;
      }

      .cls-6 {
        font-size: 12px;
        font-family: Myriad Pro;
      }

      .cls-7 {
        fill: #006837;
        stroke: #345127;
      }

      .cls-8 {
        stroke: #39b54a;
      }

      .cls-9 {
        fill: #c69c6d;
        stroke: #8c6239;
      }
    </style>
  </defs>
  <title>linechart2</title>
  <g>
    <line class="cls-1" x1="77" y1="406.04" x2="475" y2="406.04"/>
    <g>
      <line class="cls-1" x1="77.5" y1="406.54" x2="77.5" y2="397.54"/>
      <line class="cls-1" x1="103.5" y1="406.54" x2="103.5" y2="397.54"/>
      <line class="cls-1" x1="130.5" y1="406.54" x2="130.5" y2="397.54"/>
      <line class="cls-2" x1="156.5" y1="406.54" x2="156.5" y2="397.54"/>
      <line class="cls-1" x1="183.5" y1="406.54" x2="183.5" y2="397.54"/>
      <line class="cls-1" x1="209.5" y1="406.54" x2="209.5" y2="397.54"/>
      <line class="cls-1" x1="236.5" y1="406.54" x2="236.5" y2="397.54"/>
      <line class="cls-1" x1="262.5" y1="406.54" x2="262.5" y2="397.54"/>
      <line class="cls-1" x1="289.5" y1="406.54" x2="289.5" y2="397.54"/>
      <line class="cls-1" x1="315.5" y1="406.54" x2="315.5" y2="397.54"/>
      <line class="cls-1" x1="342.5" y1="406.54" x2="342.5" y2="397.54"/>
      <line class="cls-1" x1="368.5" y1="406.54" x2="368.5" y2="397.54"/>
      <line class="cls-1" x1="395.5" y1="406.54" x2="395.5" y2="397.54"/>
      <line class="cls-1" x1="421.5" y1="406.54" x2="421.5" y2="397.54"/>
      <line class="cls-1" x1="448.5" y1="406.54" x2="448.5" y2="397.54"/>
      <line class="cls-1" x1="474.5" y1="406.54" x2="474.5" y2="397.54"/>
    </g>
  </g>
  <g>
    <g>
      <text class="cls-3" transform="translate(59.83 413.22)">0</text>
      <text class="cls-3" transform="translate(39.02 321.29)">500</text>
      <text class="cls-3" transform="translate(25.82 229.36)">1,000</text>
      <text class="cls-3" transform="translate(26.99 137.43)">1,500</text>
      <text class="cls-3" transform="translate(23.58 45.5)">2,000</text>
    </g>
    <line class="cls-1" x1="77.5" y1="406.54" x2="77.5" y2="38.54"/>
    <g>
      <line class="cls-1" x1="77" y1="406.04" x2="87" y2="406.04"/>
      <line class="cls-1" x1="77" y1="314.04" x2="87" y2="314.04"/>
      <line class="cls-1" x1="77" y1="222.04" x2="87" y2="222.04"/>
      <line class="cls-1" x1="77" y1="130.04" x2="87" y2="130.04"/>
      <line class="cls-1" x1="77" y1="38.04" x2="87" y2="38.04"/>
    </g>
  </g>
  <g>
    <text class="cls-3" transform="translate(450.4 425.95)">&apos;15</text>
    <text class="cls-3" transform="translate(423.47 425.95)">&apos;14</text>
    <text class="cls-3" transform="translate(397.44 425.95)">&apos;13</text>
    <text class="cls-3" transform="translate(371.18 425.95)">&apos;12</text>
    <text class="cls-3" transform="translate(345.79 425.95)">&apos;11</text>
    <text class="cls-3" transform="translate(317.29 425.95)">&apos;10</text>
    <text class="cls-3" transform="translate(288.8 425.95)">&apos;09</text>
    <text class="cls-3" transform="translate(262.28 425.95)">&apos;08</text>
    <text class="cls-3" transform="translate(236.55 425.95)">&apos;07</text>
    <text class="cls-3" transform="translate(209.25 425.95)">&apos;06</text>
    <text class="cls-3" transform="translate(183.35 425.95)">&apos;05</text>
    <text class="cls-3" transform="translate(156.43 425.95)">&apos;04</text>
    <text class="cls-3" transform="translate(130.39 425.95)">&apos;03</text>
    <text class="cls-3" transform="translate(104.13 425.95)">&apos;02</text>
    <text class="cls-3" transform="translate(78.75 425.95)">&apos;01</text>
  </g>
  <line class="cls-4" x1="113.75" y1="457.68" x2="167.25" y2="457.68"/>
  <line class="cls-5" x1="292.77" y1="457.68" x2="345.78" y2="457.68"/>
  <text class="cls-6" transform="translate(181.36 461.47)">Net (<tspan x="23.83" y="0">B</tspan><tspan x="30.38" y="0">y 10,000)</tspan></text>
  <text class="cls-6"><tspan x="349.64" y="462.36">T</tspan><tspan x="354.76" y="462.36">otal </tspan><tspan x="376.47" y="462.36">v</tspan><tspan x="382.13" y="462.36">olume (</tspan><tspan x="420.13" y="462.36">B</tspan><tspan x="426.68" y="462.36">y 10,000)</tspan></text>
  <g>
    <g>
      <g>
        <line class="cls-5" x1="116.78" y1="341.65" x2="90.28" y2="369.99"/>
        <line class="cls-5" x1="143.29" y1="383.07" x2="116.78" y2="341.65"/>
        <line class="cls-5" x1="169.79" y1="350.71" x2="143.29" y2="383.07"/>
        <line class="cls-5" x1="196.3" y1="335.84" x2="169.79" y2="350.71"/>
        <line class="cls-5" x1="222.8" y1="225.87" x2="196.3" y2="335.84"/>
        <line class="cls-5" x1="249.31" y1="264.88" x2="222.8" y2="225.87"/>
        <line class="cls-5" x1="275.82" y1="201.16" x2="249.31" y2="264.88"/>
        <line class="cls-5" x1="302.32" y1="181.62" x2="275.82" y2="201.16"/>
        <line class="cls-5" x1="328.83" y1="225.63" x2="302.32" y2="181.62"/>
        <line class="cls-5" x1="355.33" y1="159.3" x2="328.83" y2="225.63"/>
        <line class="cls-5" x1="381.84" y1="182.4" x2="355.33" y2="159.3"/>
        <line class="cls-5" x1="408.34" y1="234.09" x2="381.84" y2="182.4"/>
        <line class="cls-5" x1="434.85" y1="63.46" x2="408.34" y2="234.09"/>
        <line class="cls-5" x1="461.35" y1="205.59" x2="434.85" y2="63.46"/>
      </g>
      <g>
        <rect class="cls-7" x="87.5" y="367.04" width="6" height="6"/>
        <rect class="cls-7" x="113.5" y="339.04" width="6" height="6"/>
        <rect class="cls-7" x="140.5" y="380.04" width="6" height="6"/>
        <rect class="cls-7" x="166.5" y="348.04" width="6" height="6"/>
        <rect class="cls-7" x="193.5" y="333.04" width="6" height="6"/>
        <rect class="cls-7" x="219.5" y="223.04" width="6" height="6"/>
        <rect class="cls-7" x="246.5" y="262.04" width="6" height="6"/>
        <rect class="cls-7" x="272.5" y="198.04" width="6" height="6"/>
        <rect class="cls-7" x="299.5" y="179.04" width="6" height="6"/>
        <rect class="cls-7" x="325.5" y="223.04" width="6" height="6"/>
        <rect class="cls-7" x="352.5" y="156.04" width="6" height="6"/>
        <rect class="cls-7" x="378.5" y="179.04" width="6" height="6"/>
        <rect class="cls-7" x="405.5" y="231.04" width="6" height="6"/>
        <rect class="cls-7" x="431.5" y="60.04" width="6" height="6"/>
        <rect class="cls-7" x="458.5" y="203.04" width="6" height="6"/>
      </g>
    </g>
    <g>
      <g>
        <line class="cls-8" x1="116.78" y1="386.65" x2="90.28" y2="395.74"/>
        <line class="cls-8" x1="143.29" y1="399.03" x2="116.78" y2="386.65"/>
        <line class="cls-8" x1="169.79" y1="390.26" x2="143.29" y2="399.03"/>
        <line class="cls-8" x1="196.3" y1="388.65" x2="169.79" y2="390.26"/>
        <line class="cls-8" x1="222.8" y1="359.48" x2="196.3" y2="388.65"/>
        <line class="cls-8" x1="249.31" y1="371.27" x2="222.8" y2="359.48"/>
        <line class="cls-8" x1="275.82" y1="357.43" x2="249.31" y2="371.27"/>
        <line class="cls-8" x1="302.32" y1="368.23" x2="275.82" y2="357.43"/>
        <line class="cls-8" x1="328.83" y1="364.53" x2="302.32" y2="368.23"/>
        <line class="cls-8" x1="355.33" y1="358.71" x2="328.83" y2="364.53"/>
        <line class="cls-8" x1="381.84" y1="361.3" x2="355.33" y2="358.71"/>
        <line class="cls-8" x1="408.34" y1="376.66" x2="381.84" y2="361.3"/>
        <line class="cls-8" x1="434.85" y1="337.24" x2="408.34" y2="376.66"/>
        <line class="cls-8" x1="461.35" y1="351.66" x2="434.85" y2="337.24"/>
      </g>
      <g>
        <rect class="cls-9" x="87.5" y="393.04" width="6" height="6"/>
        <rect class="cls-9" x="113.5" y="384.04" width="6" height="6"/>
        <rect class="cls-9" x="140.5" y="396.04" width="6" height="6"/>
        <rect class="cls-9" x="166.5" y="387.04" width="6" height="6"/>
        <rect class="cls-9" x="193.5" y="386.04" width="6" height="6"/>
        <rect class="cls-9" x="219.5" y="356.04" width="6" height="6"/>
        <rect class="cls-9" x="246.5" y="368.04" width="6" height="6"/>
        <rect class="cls-9" x="272.5" y="354.04" width="6" height="6"/>
        <rect class="cls-9" x="299.5" y="365.04" width="6" height="6"/>
        <rect class="cls-9" x="325.5" y="361.04" width="6" height="6"/>
        <rect class="cls-9" x="352.5" y="356.04" width="6" height="6"/>
        <rect class="cls-9" x="378.5" y="358.04" width="6" height="6"/>
        <rect class="cls-9" x="405.5" y="374.04" width="6" height="6"/>
        <rect class="cls-9" x="431.5" y="334.04" width="6" height="6"/>
        <rect class="cls-9" x="458.5" y="349.04" width="6" height="6"/>
      </g>
    </g>
  </g>
</svg>
