<svg id="Layer_1" data-name="Layer 1" xmlns="http://www.w3.org/2000/svg" width="520" height="430" viewBox="0 0 520 430">
  <defs>
    <style>
      .cls-1 {
        fill: none;
        stroke: #000;
        stroke-miterlimit: 10;
      }

      .cls-2 {
        font-size: 19.36px;
        fill: #231f20;
        font-family: Candara;
      }

      .cls-3 {
        fill: #7f5939;
      }
    </style>
  </defs>
  <title>selmier</title>
  <g>
    <line class="cls-1" x1="74.77" y1="390.46" x2="487.86" y2="390.46"/>
    <g>
      <line class="cls-1" x1="74.77" y1="390.46" x2="74.77" y2="381.73"/>
      <line class="cls-1" x1="104.28" y1="390.46" x2="104.28" y2="381.73"/>
      <line class="cls-1" x1="133.78" y1="390.46" x2="133.78" y2="381.73"/>
      <line class="cls-1" x1="163.29" y1="390.46" x2="163.29" y2="381.73"/>
      <line class="cls-1" x1="192.8" y1="390.46" x2="192.8" y2="381.73"/>
      <line class="cls-1" x1="222.3" y1="390.46" x2="222.3" y2="381.73"/>
      <line class="cls-1" x1="251.81" y1="390.46" x2="251.81" y2="381.73"/>
      <line class="cls-1" x1="281.32" y1="390.46" x2="281.32" y2="381.73"/>
      <line class="cls-1" x1="310.82" y1="390.46" x2="310.82" y2="381.73"/>
      <line class="cls-1" x1="340.33" y1="390.46" x2="340.33" y2="381.73"/>
      <line class="cls-1" x1="369.84" y1="390.46" x2="369.84" y2="381.73"/>
      <line class="cls-1" x1="399.34" y1="390.46" x2="399.34" y2="381.73"/>
      <line class="cls-1" x1="428.85" y1="390.46" x2="428.85" y2="381.73"/>
      <line class="cls-1" x1="458.36" y1="390.46" x2="458.36" y2="381.73"/>
      <line class="cls-1" x1="487.86" y1="390.46" x2="487.86" y2="381.73"/>
    </g>
  </g>
  <g>
    <g>
      <text class="cls-2" transform="translate(57.68 397.72)">0</text>
      <text class="cls-2" transform="translate(37.53 327.85)">500</text>
      <text class="cls-2" transform="translate(29.63 257.99)">1000</text>
      <text class="cls-2" transform="translate(30.76 188.12)">1500</text>
      <text class="cls-2" transform="translate(27.46 118.25)">2000</text>
      <text class="cls-2" transform="translate(28.58 48.39)">2500</text>
    </g>
    <line class="cls-1" x1="74.77" y1="390.46" x2="74.77" y2="41.12"/>
    <g>
      <line class="cls-1" x1="74.77" y1="390.46" x2="85.1" y2="390.46"/>
      <line class="cls-1" x1="74.77" y1="320.59" x2="85.1" y2="320.59"/>
      <line class="cls-1" x1="74.77" y1="250.73" x2="85.1" y2="250.73"/>
      <line class="cls-1" x1="74.77" y1="180.86" x2="85.1" y2="180.86"/>
      <line class="cls-1" x1="74.77" y1="110.99" x2="85.1" y2="110.99"/>
      <line class="cls-1" x1="74.77" y1="41.12" x2="85.1" y2="41.12"/>
    </g>
  </g>
  <g>
    <rect class="cls-3" x="78.9" y="321.01" width="21.24" height="69.45"/>
    <rect class="cls-3" x="196.93" y="333.17" width="21.24" height="57.29"/>
    <rect class="cls-3" x="285.45" y="69.77" width="21.24" height="320.69"/>
    <rect class="cls-3" x="373.97" y="332.19" width="21.24" height="58.27"/>
  </g>
  <g>
    <text class="cls-2" transform="translate(460.24 410.44)">15<tspan x="16.28" y="0">&apos;</tspan><tspan x="20.82" y="0">&apos;</tspan></text>
    <text class="cls-2" transform="translate(430.32 410.44)">14<tspan x="17.09" y="0">&apos;</tspan><tspan x="21.63" y="0">&apos;</tspan></text>
    <text class="cls-2" transform="translate(401.27 410.44)">13<tspan x="16.18" y="0">&apos;</tspan><tspan x="20.72" y="0">&apos;</tspan></text>
    <text class="cls-2" transform="translate(372 410.44)">12<tspan x="15.71" y="0">&apos;</tspan><tspan x="20.25" y="0">&apos;</tspan></text>
    <text class="cls-2" transform="translate(343.58 410.44)">11<tspan x="13.54" y="0">&apos;</tspan><tspan x="18.08" y="0">&apos;</tspan></text>
    <text class="cls-2" transform="translate(312.14 410.44)">10<tspan x="17.41" y="0">&apos;</tspan><tspan x="21.95" y="0">&apos;</tspan></text>
    <text class="cls-2" transform="translate(280.71 410.44)">09<tspan x="21.25" y="0">&apos;</tspan><tspan x="25.79" y="0">&apos;</tspan></text>
    <text class="cls-2" transform="translate(251.18 410.44)">08<tspan x="21.29" y="0">&apos;</tspan><tspan x="25.83" y="0">&apos;</tspan></text>
    <text class="cls-2" transform="translate(222.43 410.44)">07<tspan x="19.79" y="0">&apos;</tspan><tspan x="24.33" y="0">&apos;</tspan></text>
    <text class="cls-2" transform="translate(192.16 410.44)">06<tspan x="21.32" y="0">&apos;</tspan><tspan x="25.86" y="0">&apos;</tspan></text>
    <text class="cls-2" transform="translate(163.24 410.44)">05<tspan x="20.15" y="0">&apos;</tspan><tspan x="24.69" y="0">&apos;</tspan></text>
    <text class="cls-2" transform="translate(133.32 410.44)">04<tspan x="20.96" y="0">&apos;</tspan><tspan x="25.5" y="0">&apos;</tspan></text>
    <text class="cls-2" transform="translate(106.54 410.44)">03&apos;</text>
    <text class="cls-2" transform="translate(75 410.44)">02<tspan x="19.58" y="0">&apos;</tspan><tspan x="24.12" y="0">&apos;</tspan></text>
  </g>
</svg>
