<svg id="Layer_2" data-name="Layer 2" xmlns="http://www.w3.org/2000/svg" viewBox="0 0 2196.5 431.07"><defs><style>.cls-1{fill:#303a09;}.cls-2,.cls-3,.cls-4{fill:none;stroke-width:1.5px;}.cls-2,.cls-3{stroke:#3e4225;stroke-linecap:square;}.cls-10,.cls-2,.cls-3,.cls-4,.cls-6,.cls-7{stroke-miterlimit:10;}.cls-3{stroke-dasharray:9.78 5.87;}.cls-4{stroke:#3f4425;}.cls-5{opacity:0.7;}.cls-6{fill:#899b23;stroke:#7d913f;}.cls-7{fill:#683d0f;stroke:#683d0f;}.cls-8{font-size:43.98px;fill:#5b4029;font-family:Candara;font-weight:700;}.cls-9{opacity:0.8;}.cls-10{fill:#6a992c;stroke:#6a992c;}</style></defs><title>timeline</title><line class="cls-1" x1="32.6" y1="48.73" x2="169.72" y2="48.73"/><line class="cls-2" x1="56.93" y1="205.09" x2="61.93" y2="205.09"/><line class="cls-3" x1="67.79" y1="205.09" x2="143.07" y2="205.09"/><line class="cls-2" x1="146" y1="205.09" x2="151" y2="205.09"/><ellipse class="cls-4" cx="169.62" cy="207.84" rx="11.49" ry="14.99"/><g class="cls-5"><path class="cls-6" d="M168.49,141.3s-10.67,2.36-11.46-12.84c0,0-10.22,1-12.05-10.13,0,0-10-2.7-7.07-17.57,0,0-13.62-5.4-5.5-21.28,0,0-10.48-12.84,2.36-24,0,0-3.41-14.86,8.38-17.23,0,0,1.31-11.15,9.43-10.47,0,0,5.76-8.84,12.84,0,0,0,5.5-9.43,13.1-.65,0,0,14.41-9.46,14.93,9.12,0,0,9.43-3.72,12.05,9.8,0,0,13.36-2.7,11.53,18.92a17.56,17.56,0,0,1,2.62,21.28s3.67,14.19-6.29,17.23c0,0-.79,11.15-10,15.2,0,0,1,2-1.83,3.72,0,0,.52,14.19-16.77,13.17,0,0-1.56,5.4-9.56,4.39,0,0,1.45-39.86,0-55.4l-2-8.78a113.43,113.43,0,0,0-2.36,17.9Z"/><path class="cls-7" d="M165.68,178.46s3.53-27,2.81-37.16l1.26-24.67s-4.86.69-9.31-5.06c0,0-3.41,2.7-9.43,0a1.11,1.11,0,0,1,0-2s5.21,2.7,9,0c0,0-2.73-2.7-5.09-17.9,0,0-3.14-1.35-6.55-6.08,0,0-1.31-2.26.79-1.8,0,0,2.62,4.85,5.5,5.18a40.93,40.93,0,0,1,0-11.15s1.31-5.74,1.83,0c0,0-1.05,17.9,2.36,23,0,0,1.59,13.17,10.88,13.85l1.45-25.33,2.08-13.51a76.61,76.61,0,0,1,2,8.78s3,42.89.24,47.62c0,0,11.67,1.36,12.46-22.29,0,0-3.67-1.35-6.29-7.43,0,0-.79-3.72,1.31-1.69,0,0,.52,5.07,5,6.76,0,0,1.83-3,0-12.16,0,0-1.83-8.78,1.83-1,0,0,1.31,9.12,0,15.88,0,0,9.17-.34,10.22-11.15,0,0,.52-6.76,1.57-0.34,0,0,1.4,12.13-11.79,13.51,0,0-1,10.81-5.24,17.57,0,0,3.93,2,7.6-4.73,0,0,3.49-6.38,1.57,1.76,0,0-.52,6.34-11.79,6a11.89,11.89,0,0,1-6.55,3.36s1.48,38.52-.57,44.94C174.8,181.17,170.92,183.87,165.68,178.46Z"/></g><text class="cls-8" transform="translate(141.06 74.51) scale(0.77 1)">2001</text><line class="cls-2" x1="164.16" y1="207.84" x2="169.16" y2="207.84"/><line class="cls-2" x1="170.25" y1="207.84" x2="175.25" y2="207.84"/><line class="cls-4" x1="169.62" y1="214.67" x2="169.62" y2="200.19"/><line class="cls-2" x1="191.01" y1="205.09" x2="196.01" y2="205.09"/><line class="cls-3" x1="201.88" y1="205.09" x2="277.15" y2="205.09"/><line class="cls-2" x1="280.09" y1="205.09" x2="285.09" y2="205.09"/><ellipse class="cls-4" cx="303.7" cy="207.84" rx="11.49" ry="14.99"/><line class="cls-2" x1="298.24" y1="207.84" x2="303.24" y2="207.84"/><line class="cls-2" x1="304.34" y1="207.84" x2="309.34" y2="207.84"/><line class="cls-4" x1="303.7" y1="214.67" x2="303.7" y2="200.19"/><line class="cls-2" x1="325.1" y1="205.09" x2="330.1" y2="205.09"/><line class="cls-3" x1="335.97" y1="205.09" x2="411.24" y2="205.09"/><line class="cls-2" x1="414.17" y1="205.09" x2="419.17" y2="205.09"/><ellipse class="cls-4" cx="437.79" cy="207.84" rx="11.49" ry="14.99"/><line class="cls-2" x1="432.33" y1="207.84" x2="437.33" y2="207.84"/><line class="cls-2" x1="438.43" y1="207.84" x2="443.43" y2="207.84"/><line class="cls-4" x1="437.79" y1="214.67" x2="437.79" y2="200.19"/><line class="cls-2" x1="456.41" y1="205.09" x2="461.41" y2="205.09"/><line class="cls-3" x1="467.28" y1="205.09" x2="542.55" y2="205.09"/><line class="cls-2" x1="545.48" y1="205.09" x2="550.48" y2="205.09"/><ellipse class="cls-4" cx="569.1" cy="207.84" rx="11.49" ry="14.99"/><line class="cls-2" x1="563.64" y1="207.84" x2="568.64" y2="207.84"/><line class="cls-2" x1="569.74" y1="207.84" x2="574.74" y2="207.84"/><line class="cls-4" x1="569.1" y1="214.67" x2="569.1" y2="200.19"/><line class="cls-2" x1="590.5" y1="205.09" x2="595.5" y2="205.09"/><line class="cls-3" x1="601.36" y1="205.09" x2="676.64" y2="205.09"/><line class="cls-2" x1="679.57" y1="205.09" x2="684.57" y2="205.09"/><ellipse class="cls-4" cx="703.19" cy="207.84" rx="11.49" ry="14.99"/><line class="cls-2" x1="697.73" y1="207.84" x2="702.73" y2="207.84"/><line class="cls-2" x1="703.82" y1="207.84" x2="708.82" y2="207.84"/><line class="cls-4" x1="703.19" y1="214.67" x2="703.19" y2="200.19"/><line class="cls-2" x1="724.59" y1="205.09" x2="729.59" y2="205.09"/><line class="cls-3" x1="735.45" y1="205.09" x2="810.73" y2="205.09"/><line class="cls-2" x1="813.66" y1="205.09" x2="818.66" y2="205.09"/><ellipse class="cls-4" cx="837.28" cy="207.84" rx="11.49" ry="14.99"/><line class="cls-2" x1="831.82" y1="207.84" x2="836.82" y2="207.84"/><line class="cls-2" x1="837.91" y1="207.84" x2="842.91" y2="207.84"/><line class="cls-4" x1="837.28" y1="214.67" x2="837.28" y2="200.19"/><line class="cls-2" x1="858.67" y1="205.09" x2="863.67" y2="205.09"/><line class="cls-3" x1="869.54" y1="205.09" x2="944.81" y2="205.09"/><line class="cls-2" x1="947.75" y1="205.09" x2="952.75" y2="205.09"/><ellipse class="cls-4" cx="971.36" cy="207.84" rx="11.49" ry="14.99"/><line class="cls-2" x1="965.9" y1="207.84" x2="970.9" y2="207.84"/><line class="cls-2" x1="972" y1="207.84" x2="977" y2="207.84"/><line class="cls-4" x1="971.36" y1="214.67" x2="971.36" y2="200.19"/><line class="cls-2" x1="992.76" y1="205.09" x2="997.76" y2="205.09"/><line class="cls-3" x1="1003.63" y1="205.09" x2="1078.9" y2="205.09"/><line class="cls-2" x1="1081.83" y1="205.09" x2="1086.83" y2="205.09"/><ellipse class="cls-4" cx="1105.45" cy="207.84" rx="11.49" ry="14.99"/><line class="cls-2" x1="1099.99" y1="207.84" x2="1104.99" y2="207.84"/><line class="cls-2" x1="1106.09" y1="207.84" x2="1111.09" y2="207.84"/><line class="cls-4" x1="1105.45" y1="214.67" x2="1105.45" y2="200.19"/><g class="cls-5"><path class="cls-6" d="M440.23,142s-10.67,2.36-11.46-12.84c0,0-10.22,1-12.05-10.13,0,0-10-2.7-7.07-17.57,0,0-13.62-5.4-5.5-21.28,0,0-10.48-12.84,2.36-24,0,0-3.41-14.86,8.38-17.23,0,0,1.31-11.15,9.43-10.47,0,0,5.76-8.84,12.84,0,0,0,5.5-9.43,13.1-.65,0,0,14.41-9.46,14.93,9.12,0,0,9.43-3.72,12.05,9.8,0,0,13.36-2.7,11.53,18.92a17.56,17.56,0,0,1,2.62,21.28s3.67,14.19-6.29,17.23c0,0-.79,11.15-10,15.2,0,0,1,2-1.83,3.72,0,0,.52,14.19-16.77,13.17,0,0-1.56,5.4-9.56,4.39,0,0,1.45-39.86,0-55.4l-2-8.78a113.43,113.43,0,0,0-2.36,17.9Z"/><path class="cls-7" d="M437.41,179.12s3.53-27,2.81-37.16l1.26-24.67s-4.86.69-9.31-5.06c0,0-3.41,2.7-9.43,0a1.11,1.11,0,0,1,0-2s5.21,2.7,9,0c0,0-2.73-2.7-5.09-17.9,0,0-3.14-1.35-6.55-6.08,0,0-1.31-2.26.79-1.8,0,0,2.62,4.85,5.5,5.18a40.93,40.93,0,0,1,0-11.15s1.31-5.74,1.83,0c0,0-1.05,17.9,2.36,23,0,0,1.59,13.17,10.88,13.85l1.45-25.33L445,76.43a76.61,76.61,0,0,1,2,8.78s3,42.89.24,47.62c0,0,11.67,1.36,12.46-22.29,0,0-3.67-1.35-6.29-7.43,0,0-.79-3.72,1.31-1.69,0,0,.52,5.07,5,6.76,0,0,1.83-3,0-12.16,0,0-1.83-8.78,1.83-1,0,0,1.31,9.12,0,15.88,0,0,9.17-.34,10.22-11.15,0,0,.52-6.76,1.57-0.34,0,0,1.4,12.13-11.79,13.51,0,0-1,10.81-5.24,17.57,0,0,3.93,2,7.6-4.73,0,0,3.49-6.38,1.57,1.76,0,0-.52,6.34-11.79,6a11.89,11.89,0,0,1-6.55,3.36s1.48,38.52-.57,44.94C446.53,181.82,442.65,184.53,437.41,179.12Z"/></g><text class="cls-8" transform="translate(413.91 75.17) scale(0.77 1)">2003</text><g class="cls-9"><path class="cls-10" d="M305.9,236S289,270.35,288,274.47c0,0,5.62.92,9,0,0,0-17,28-18.8,33a24.64,24.64,0,0,0,8.78,0s-14.06,24.3-14.76,28.89a28.67,28.67,0,0,0,9.49,0s-15.11,34.39-18.27,43.56c0,0,30.57,1.83,38.65,0l0.35-10.55,6.68,0.46v10.9a374.63,374.63,0,0,0,40.41,0s-14.41-36.12-18.27-43.46c0,0,6.32.46,8.43-.46,0,0-11.6-25.21-14.06-28.2a21.88,21.88,0,0,0,9.49,0s-14.76-27.29-19-32.33a16.81,16.81,0,0,0,9.14,0S315,252.47,305.9,236Z"/><polygon class="cls-7" points="302.39 369.39 309.06 369.85 309.06 401.49 302.39 401.49 302.39 369.39"/></g><text class="cls-8" transform="translate(272.28 352.2) scale(0.77 1)">2002</text><g class="cls-9"><path class="cls-10" d="M572.82,234.64S555.95,269,554.9,273.16c0,0,5.62.92,9,0,0,0-17,28-18.8,33a24.64,24.64,0,0,0,8.78,0s-14.06,24.3-14.76,28.89a28.67,28.67,0,0,0,9.49,0s-15.11,34.39-18.27,43.56c0,0,30.57,1.83,38.65,0l0.35-10.55,6.68,0.46v10.9a374.63,374.63,0,0,0,40.41,0S602,343.31,598.11,336c0,0,6.32.46,8.43-.46,0,0-11.6-25.21-14.06-28.2a21.88,21.88,0,0,0,9.49,0S587.22,280,583,275a16.81,16.81,0,0,0,9.14,0S582,251.15,572.82,234.64Z"/><polygon class="cls-7" points="569.3 368.07 575.98 368.53 575.98 400.17 569.3 400.17 569.3 368.07"/></g><text class="cls-8" transform="translate(537.67 351.85) scale(0.77 1)">2004</text><g class="cls-9"><path class="cls-10" d="M839.73,234.64S822.87,269,821.81,273.16c0,0,5.62.92,9,0,0,0-17,28-18.8,33a24.64,24.64,0,0,0,8.78,0S806.7,330.47,806,335.06a28.67,28.67,0,0,0,9.49,0s-15.11,34.39-18.27,43.56c0,0,30.57,1.83,38.65,0l0.35-10.55,6.68,0.46v10.9a374.63,374.63,0,0,0,40.41,0S868.9,343.31,865,336c0,0,6.32.46,8.43-.46,0,0-11.6-25.21-14.06-28.2a21.88,21.88,0,0,0,9.49,0S854.14,280,849.92,275a16.81,16.81,0,0,0,9.14,0S848.87,251.15,839.73,234.64Z"/><polygon class="cls-7" points="836.22 368.07 842.89 368.53 842.89 400.17 836.22 400.17 836.22 368.07"/></g><text class="cls-8" transform="translate(811.96 352.73) scale(0.77 1)">2006</text><g class="cls-9"><path class="cls-10" d="M1106.65,234.64s-16.87,34.39-17.92,38.52c0,0,5.62.92,9,0,0,0-17,28-18.8,33a24.64,24.64,0,0,0,8.78,0s-14.06,24.3-14.76,28.89a28.67,28.67,0,0,0,9.49,0s-15.11,34.39-18.27,43.56c0,0,30.57,1.83,38.65,0l0.35-10.55,6.68,0.46v10.9a374.63,374.63,0,0,0,40.41,0s-14.41-36.12-18.27-43.46c0,0,6.32.46,8.43-.46,0,0-11.6-25.21-14.06-28.2a21.88,21.88,0,0,0,9.49,0s-14.76-27.29-19-32.33a16.81,16.81,0,0,0,9.14,0S1115.78,251.15,1106.65,234.64Z"/><polygon class="cls-7" points="1103.13 368.07 1109.81 368.53 1109.81 400.17 1103.13 400.17 1103.13 368.07"/></g><text class="cls-8" transform="translate(1072.63 349.61) scale(0.77 1)">2008</text><g class="cls-5"><path class="cls-6" d="M700.35,142.62s-10.67,2.36-11.46-12.84c0,0-10.22,1-12.05-10.13,0,0-10-2.7-7.07-17.57,0,0-13.62-5.4-5.5-21.28,0,0-10.48-12.84,2.36-24,0,0-3.41-14.86,8.38-17.23,0,0,1.31-11.15,9.43-10.47,0,0,5.76-8.84,12.84,0,0,0,5.5-9.43,13.1-.65,0,0,14.41-9.46,14.93,9.12,0,0,9.43-3.72,12.05,9.8,0,0,13.36-2.7,11.53,18.92a17.56,17.56,0,0,1,2.62,21.28s3.67,14.19-6.29,17.23c0,0-.79,11.15-10,15.2,0,0,1,2-1.83,3.72,0,0,.52,14.19-16.77,13.17,0,0-1.56,5.4-9.56,4.39,0,0,1.45-39.86,0-55.4l-2-8.78A113.43,113.43,0,0,0,702.77,95Z"/><path class="cls-7" d="M697.53,179.78s3.53-27,2.81-37.16L701.6,118s-4.86.69-9.31-5.06c0,0-3.41,2.7-9.43,0a1.11,1.11,0,0,1,0-2s5.21,2.7,9,0c0,0-2.73-2.7-5.09-17.9,0,0-3.14-1.35-6.55-6.08,0,0-1.31-2.26.79-1.8,0,0,2.62,4.85,5.5,5.18a40.93,40.93,0,0,1,0-11.15s1.31-5.74,1.83,0c0,0-1.05,17.9,2.36,23,0,0,1.59,13.17,10.88,13.85l1.45-25.33,2.08-13.51a76.61,76.61,0,0,1,2,8.78s3,42.89.24,47.62c0,0,11.67,1.36,12.46-22.29,0,0-3.67-1.35-6.29-7.43,0,0-.79-3.72,1.31-1.69,0,0,.52,5.07,5,6.76,0,0,1.83-3,0-12.16,0,0-1.83-8.78,1.83-1,0,0,1.31,9.12,0,15.88,0,0,9.17-.34,10.22-11.15,0,0,.52-6.76,1.57-0.34,0,0,1.4,12.13-11.79,13.51,0,0-1,10.81-5.24,17.57,0,0,3.93,2,7.6-4.73,0,0,3.49-6.38,1.57,1.76,0,0-.52,6.34-11.79,6a11.89,11.89,0,0,1-6.55,3.36s1.48,38.52-.57,44.94C706.65,182.48,702.77,185.19,697.53,179.78Z"/></g><text class="cls-8" transform="translate(670.13 76.27) scale(0.77 1)">2005</text><g class="cls-5"><path class="cls-6" d="M970.24,142.36s-10.67,2.36-11.46-12.84c0,0-10.22,1-12.05-10.13,0,0-10-2.7-7.07-17.57,0,0-13.62-5.4-5.5-21.28,0,0-10.48-12.84,2.36-24,0,0-3.41-14.86,8.38-17.23,0,0,1.31-11.15,9.43-10.47,0,0,5.76-8.84,12.84,0,0,0,5.5-9.43,13.1-.65,0,0,14.41-9.46,14.93,9.12,0,0,9.43-3.72,12.05,9.8,0,0,13.36-2.7,11.53,18.92a17.56,17.56,0,0,1,2.62,21.28s3.67,14.19-6.29,17.23c0,0-.79,11.15-10,15.2,0,0,1,2-1.83,3.72,0,0,.52,14.19-16.77,13.17,0,0-1.56,5.4-9.56,4.39,0,0,1.45-39.86,0-55.4l-2-8.78a113.43,113.43,0,0,0-2.36,17.9Z"/><path class="cls-7" d="M967.43,179.52s3.53-27,2.81-37.16l1.26-24.67s-4.86.69-9.31-5.06c0,0-3.41,2.7-9.43,0a1.11,1.11,0,0,1,0-2s5.21,2.7,9,0c0,0-2.73-2.7-5.09-17.9,0,0-3.14-1.35-6.55-6.08,0,0-1.31-2.26.79-1.8,0,0,2.62,4.85,5.5,5.18a40.93,40.93,0,0,1,0-11.15s1.31-5.74,1.83,0c0,0-1.05,17.9,2.36,23,0,0,1.59,13.17,10.88,13.85L973,90.34,975,76.83a76.61,76.61,0,0,1,2,8.78s3,42.89.24,47.62c0,0,11.67,1.36,12.46-22.29,0,0-3.67-1.35-6.29-7.43,0,0-.79-3.72,1.31-1.69,0,0,.52,5.07,5,6.76,0,0,1.83-3,0-12.16,0,0-1.83-8.78,1.83-1,0,0,1.31,9.12,0,15.88,0,0,9.17-.34,10.22-11.15,0,0,.52-6.76,1.57-0.34,0,0,1.4,12.13-11.79,13.51,0,0-1,10.81-5.24,17.57,0,0,3.93,2,7.6-4.73,0,0,3.49-6.38,1.57,1.76,0,0-.52,6.34-11.79,6a11.89,11.89,0,0,1-6.55,3.36s1.48,38.52-.57,44.94C976.55,182.22,972.67,184.93,967.43,179.52Z"/></g><text class="cls-8" transform="translate(943.17 76.27) scale(0.77 1)">2007</text><line class="cls-1" x1="1073.62" y1="50.5" x2="1210.74" y2="50.5"/><line class="cls-2" x1="1124.77" y1="206.85" x2="1129.77" y2="206.85"/><line class="cls-3" x1="1135.64" y1="206.85" x2="1210.91" y2="206.85"/><line class="cls-2" x1="1213.84" y1="206.85" x2="1218.84" y2="206.85"/><ellipse class="cls-4" cx="1237.46" cy="209.61" rx="11.49" ry="14.99"/><g class="cls-5"><path class="cls-6" d="M1236.34,143.07s-10.67,2.36-11.46-12.84c0,0-10.22,1-12.05-10.13,0,0-10-2.7-7.07-17.57,0,0-13.62-5.4-5.5-21.28,0,0-10.48-12.84,2.36-24,0,0-3.41-14.86,8.38-17.23,0,0,1.31-11.15,9.43-10.47,0,0,5.76-8.84,12.84,0,0,0,5.5-9.43,13.1-.65,0,0,14.41-9.46,14.93,9.12,0,0,9.43-3.72,12.05,9.8,0,0,13.36-2.7,11.53,18.92A17.56,17.56,0,0,1,1287.5,88s3.67,14.19-6.29,17.23c0,0-.79,11.15-10,15.2,0,0,1,2-1.83,3.72,0,0,.52,14.19-16.77,13.17,0,0-1.56,5.4-9.56,4.39,0,0,1.45-39.86,0-55.4l-2-8.78a113.43,113.43,0,0,0-2.36,17.9Z"/><path class="cls-7" d="M1233.53,180.23s3.53-27,2.81-37.16l1.26-24.67s-4.86.69-9.31-5.06c0,0-3.41,2.7-9.43,0a1.11,1.11,0,0,1,0-2s5.21,2.7,9,0c0,0-2.73-2.7-5.09-17.9,0,0-3.14-1.35-6.55-6.08,0,0-1.31-2.26.79-1.8,0,0,2.62,4.85,5.5,5.18a40.93,40.93,0,0,1,0-11.15s1.31-5.74,1.83,0c0,0-1.05,17.9,2.36,23,0,0,1.59,13.17,10.88,13.85L1239,91l2.08-13.51a76.61,76.61,0,0,1,2,8.78s3,42.89.24,47.62c0,0,11.67,1.36,12.46-22.29,0,0-3.67-1.35-6.29-7.43,0,0-.79-3.72,1.31-1.69,0,0,.52,5.07,5,6.76,0,0,1.83-3,0-12.16,0,0-1.83-8.78,1.83-1,0,0,1.31,9.12,0,15.88,0,0,9.17-.34,10.22-11.15,0,0,.52-6.76,1.57-0.34,0,0,1.4,12.13-11.79,13.51,0,0-1,10.81-5.24,17.57,0,0,3.93,2,7.6-4.73,0,0,3.49-6.38,1.57,1.76,0,0-.52,6.34-11.79,6a11.89,11.89,0,0,1-6.55,3.36s1.48,38.52-.57,44.94C1242.65,182.93,1238.77,185.63,1233.53,180.23Z"/></g><text class="cls-8" transform="translate(1209.74 78.58) scale(0.77 1)">2009</text><line class="cls-2" x1="1232" y1="209.61" x2="1237" y2="209.61"/><line class="cls-2" x1="1238.1" y1="209.61" x2="1243.1" y2="209.61"/><line class="cls-4" x1="1237.46" y1="216.44" x2="1237.46" y2="201.96"/><line class="cls-2" x1="1260.94" y1="206.92" x2="1265.94" y2="206.92"/><line class="cls-3" x1="1271.8" y1="206.92" x2="1347.08" y2="206.92"/><line class="cls-2" x1="1350.01" y1="206.92" x2="1355.01" y2="206.92"/><ellipse class="cls-4" cx="1373.63" cy="209.68" rx="11.49" ry="14.99"/><line class="cls-2" x1="1368.17" y1="209.68" x2="1373.17" y2="209.68"/><line class="cls-2" x1="1374.26" y1="209.68" x2="1379.26" y2="209.68"/><line class="cls-4" x1="1373.63" y1="216.51" x2="1373.63" y2="202.03"/><g class="cls-9"><path class="cls-10" d="M1375.82,237.79s-16.87,34.39-17.92,38.52c0,0,5.62.92,9,0,0,0-17,28-18.8,33a24.64,24.64,0,0,0,8.78,0s-14.06,24.3-14.76,28.89a28.67,28.67,0,0,0,9.49,0s-15.11,34.39-18.27,43.56c0,0,30.57,1.83,38.65,0l0.35-10.55,6.68,0.46v10.9a374.63,374.63,0,0,0,40.41,0s-14.41-36.12-18.27-43.46c0,0,6.32.46,8.43-.46,0,0-11.6-25.21-14.06-28.2a21.88,21.88,0,0,0,9.49,0s-14.76-27.29-19-32.33a16.81,16.81,0,0,0,9.14,0S1385,254.3,1375.82,237.79Z"/><polygon class="cls-7" points="1372.31 371.23 1378.99 371.68 1378.99 403.32 1372.31 403.32 1372.31 371.23"/></g><text class="cls-8" transform="translate(1342.2 352.73) scale(0.77 1)">2010</text><line class="cls-1" x1="1338.01" y1="53.16" x2="1475.13" y2="53.16"/><line class="cls-2" x1="1395.98" y1="209.52" x2="1400.98" y2="209.52"/><line class="cls-3" x1="1406.84" y1="209.52" x2="1482.11" y2="209.52"/><line class="cls-2" x1="1485.05" y1="209.52" x2="1490.05" y2="209.52"/><ellipse class="cls-4" cx="1508.67" cy="212.27" rx="11.49" ry="14.99"/><g class="cls-5"><path class="cls-6" d="M1507.54,145.74s-10.67,2.36-11.46-12.84c0,0-10.22,1-12.05-10.13,0,0-10-2.7-7.07-17.57,0,0-13.62-5.4-5.5-21.28,0,0-10.48-12.84,2.36-24,0,0-3.41-14.86,8.38-17.23,0,0,1.31-11.15,9.43-10.47,0,0,5.76-8.84,12.84,0,0,0,5.5-9.43,13.1-.65,0,0,14.41-9.46,14.93,9.12,0,0,9.43-3.72,12.05,9.8,0,0,13.36-2.7,11.53,18.92a17.56,17.56,0,0,1,2.62,21.28s3.67,14.19-6.29,17.23c0,0-.79,11.15-10,15.2,0,0,1,2-1.83,3.72,0,0,.52,14.19-16.77,13.17,0,0-1.56,5.4-9.56,4.39,0,0,1.45-39.86,0-55.4l-2-8.78A113.43,113.43,0,0,0,1510,98.1Z"/><path class="cls-7" d="M1504.73,182.89s3.53-27,2.81-37.16l1.26-24.67s-4.86.69-9.31-5.06c0,0-3.41,2.7-9.43,0a1.11,1.11,0,0,1,0-2s5.21,2.7,9,0c0,0-2.73-2.7-5.09-17.9,0,0-3.14-1.35-6.55-6.08,0,0-1.31-2.26.79-1.8,0,0,2.62,4.85,5.5,5.18a40.93,40.93,0,0,1,0-11.15s1.31-5.74,1.83,0c0,0-1.05,17.9,2.36,23,0,0,1.59,13.17,10.88,13.85l1.45-25.33,2.08-13.51a76.61,76.61,0,0,1,2,8.78s3,42.89.24,47.62c0,0,11.67,1.36,12.46-22.29,0,0-3.67-1.35-6.29-7.43,0,0-.79-3.72,1.31-1.69,0,0,.52,5.07,5,6.76,0,0,1.83-3,0-12.16,0,0-1.83-8.78,1.83-1,0,0,1.31,9.12,0,15.88,0,0,9.17-.34,10.22-11.15,0,0,.52-6.76,1.57-0.34,0,0,1.4,12.13-11.79,13.51,0,0-1,10.81-5.24,17.57,0,0,3.93,2,7.6-4.73,0,0,3.49-6.38,1.57,1.76,0,0-.52,6.34-11.79,6a11.89,11.89,0,0,1-6.55,3.36s1.48,38.52-.57,44.94C1513.85,185.6,1510,188.3,1504.73,182.89Z"/></g><text class="cls-8" transform="translate(1478.89 78.94) scale(0.77 1)">2011</text><line class="cls-2" x1="1503.2" y1="212.27" x2="1508.2" y2="212.27"/><line class="cls-2" x1="1509.3" y1="212.27" x2="1514.3" y2="212.27"/><line class="cls-4" x1="1508.67" y1="219.11" x2="1508.67" y2="204.63"/><line class="cls-2" x1="1530.06" y1="209.52" x2="1535.06" y2="209.52"/><line class="cls-3" x1="1540.93" y1="209.52" x2="1616.2" y2="209.52"/><line class="cls-2" x1="1619.14" y1="209.52" x2="1624.14" y2="209.52"/><ellipse class="cls-4" cx="1642.75" cy="212.27" rx="11.49" ry="14.99"/><line class="cls-2" x1="1637.29" y1="212.27" x2="1642.29" y2="212.27"/><line class="cls-2" x1="1643.39" y1="212.27" x2="1648.39" y2="212.27"/><line class="cls-4" x1="1642.75" y1="219.11" x2="1642.75" y2="204.63"/><g class="cls-9"><path class="cls-10" d="M1644.95,240.39s-16.87,34.39-17.92,38.52c0,0,5.62.92,9,0,0,0-17,28-18.8,33a24.64,24.64,0,0,0,8.78,0s-14.06,24.3-14.76,28.89a28.67,28.67,0,0,0,9.49,0s-15.11,34.39-18.27,43.56c0,0,30.57,1.83,38.65,0l0.35-10.55,6.68,0.46v10.9a374.63,374.63,0,0,0,40.41,0s-14.41-36.12-18.27-43.46c0,0,6.32.46,8.43-.46,0,0-11.6-25.21-14.06-28.2a21.88,21.88,0,0,0,9.49,0s-14.76-27.29-19-32.33a16.81,16.81,0,0,0,9.14,0S1654.08,256.9,1644.95,240.39Z"/><polygon class="cls-7" points="1641.43 373.82 1648.11 374.28 1648.11 405.92 1641.43 405.92 1641.43 373.82"/></g><text class="cls-8" transform="translate(1617.17 358.22) scale(0.77 1)">2012</text><line class="cls-1" x1="1605.63" y1="52.81" x2="1742.75" y2="52.81"/><line class="cls-2" x1="1670.49" y1="209.17" x2="1675.49" y2="209.17"/><line class="cls-3" x1="1681.35" y1="209.17" x2="1756.63" y2="209.17"/><line class="cls-2" x1="1759.56" y1="209.17" x2="1764.56" y2="209.17"/><ellipse class="cls-4" cx="1783.18" cy="211.92" rx="11.49" ry="14.99"/><g class="cls-5"><path class="cls-6" d="M1782.05,145.38s-10.67,2.36-11.46-12.84c0,0-10.22,1-12.05-10.13,0,0-10-2.7-7.07-17.57,0,0-13.62-5.4-5.5-21.28,0,0-10.48-12.84,2.36-24,0,0-3.41-14.86,8.38-17.23,0,0,1.31-11.15,9.43-10.47,0,0,5.76-8.84,12.84,0,0,0,5.5-9.43,13.1-.65,0,0,14.41-9.46,14.93,9.12,0,0,9.43-3.72,12.05,9.8,0,0,13.36-2.7,11.53,18.92a17.56,17.56,0,0,1,2.62,21.28s3.67,14.19-6.29,17.23c0,0-.79,11.15-10,15.2,0,0,1,2-1.83,3.72,0,0,.52,14.19-16.77,13.17,0,0-1.56,5.4-9.56,4.39,0,0,1.45-39.86,0-55.4l-2-8.78a113.43,113.43,0,0,0-2.36,17.9Z"/><path class="cls-7" d="M1779.24,182.54s3.53-27,2.81-37.16l1.26-24.67s-4.86.69-9.31-5.06c0,0-3.41,2.7-9.43,0a1.11,1.11,0,0,1,0-2s5.21,2.7,9,0c0,0-2.73-2.7-5.09-17.9,0,0-3.14-1.35-6.55-6.08,0,0-1.31-2.26.79-1.8,0,0,2.62,4.85,5.5,5.18a40.93,40.93,0,0,1,0-11.15s1.31-5.74,1.83,0c0,0-1.05,17.9,2.36,23,0,0,1.59,13.17,10.88,13.85l1.45-25.33,2.08-13.51a76.61,76.61,0,0,1,2,8.78s3,42.89.24,47.62c0,0,11.67,1.36,12.46-22.29,0,0-3.67-1.35-6.29-7.43,0,0-.79-3.72,1.31-1.69,0,0,.52,5.07,5,6.76,0,0,1.83-3,0-12.16,0,0-1.83-8.78,1.83-1,0,0,1.31,9.12,0,15.88,0,0,9.17-.34,10.22-11.15,0,0,.52-6.76,1.57-0.34,0,0,1.4,12.13-11.79,13.51,0,0-1,10.81-5.24,17.57,0,0,3.93,2,7.6-4.73,0,0,3.49-6.38,1.57,1.76,0,0-.52,6.34-11.79,6a11.89,11.89,0,0,1-6.55,3.36s1.48,38.52-.57,44.94C1788.36,185.24,1784.48,187.94,1779.24,182.54Z"/></g><text class="cls-8" transform="translate(1754.9 78.58) scale(0.77 1)">2013</text><line class="cls-2" x1="1777.71" y1="211.92" x2="1782.71" y2="211.92"/><line class="cls-2" x1="1783.81" y1="211.92" x2="1788.81" y2="211.92"/><line class="cls-4" x1="1783.18" y1="218.75" x2="1783.18" y2="204.27"/><line class="cls-2" x1="1804.57" y1="209.17" x2="1809.57" y2="209.17"/><line class="cls-3" x1="1815.44" y1="209.17" x2="1890.71" y2="209.17"/><line class="cls-2" x1="1893.65" y1="209.17" x2="1898.65" y2="209.17"/><ellipse class="cls-4" cx="1917.26" cy="211.92" rx="11.49" ry="14.99"/><line class="cls-2" x1="1911.8" y1="211.92" x2="1916.8" y2="211.92"/><line class="cls-2" x1="1917.9" y1="211.92" x2="1922.9" y2="211.92"/><line class="cls-4" x1="1917.26" y1="218.75" x2="1917.26" y2="204.27"/><g class="cls-9"><path class="cls-10" d="M1919.46,240s-16.87,34.39-17.92,38.52c0,0,5.62.92,9,0,0,0-17,28-18.8,33a24.64,24.64,0,0,0,8.78,0s-14.06,24.3-14.76,28.89a28.67,28.67,0,0,0,9.49,0s-15.11,34.39-18.27,43.56c0,0,30.57,1.83,38.65,0l0.35-10.55,6.68,0.46v10.9a374.63,374.63,0,0,0,40.41,0s-14.41-36.12-18.27-43.46c0,0,6.32.46,8.43-.46,0,0-11.6-25.21-14.06-28.2a21.88,21.88,0,0,0,9.49,0s-14.76-27.29-19-32.33a16.81,16.81,0,0,0,9.14,0S1928.59,256.54,1919.46,240Z"/><polygon class="cls-7" points="1915.94 373.46 1922.62 373.92 1922.62 405.56 1915.94 405.56 1915.94 373.46"/></g><text class="cls-8" transform="translate(1891.69 357.87) scale(0.77 1)">2014</text><line class="cls-1" x1="1868.22" y1="55.05" x2="2005.34" y2="55.05"/><line class="cls-2" x1="1939.85" y1="211.41" x2="1944.85" y2="211.41"/><line class="cls-3" x1="1950.71" y1="211.41" x2="2025.98" y2="211.41"/><line class="cls-2" x1="2028.92" y1="211.41" x2="2033.92" y2="211.41"/><ellipse class="cls-4" cx="2052.54" cy="214.16" rx="11.49" ry="14.99"/><g class="cls-5"><path class="cls-6" d="M2051.41,147.62S2040.74,150,2040,134.78c0,0-10.22,1-12.05-10.13,0,0-10-2.7-7.07-17.57,0,0-13.62-5.4-5.5-21.28,0,0-10.48-12.84,2.36-24,0,0-3.41-14.86,8.38-17.23,0,0,1.31-11.15,9.43-10.47,0,0,5.76-8.84,12.84,0,0,0,5.5-9.43,13.1-.65,0,0,14.41-9.46,14.93,9.12,0,0,9.43-3.72,12.05,9.8,0,0,13.36-2.7,11.53,18.92a17.56,17.56,0,0,1,2.62,21.28s3.67,14.19-6.29,17.23c0,0-.79,11.15-10,15.2,0,0,1,2-1.83,3.72,0,0,.52,14.19-16.77,13.17,0,0-1.56,5.4-9.56,4.39,0,0,1.45-39.86,0-55.4l-2-8.78a113.43,113.43,0,0,0-2.36,17.9Z"/><path class="cls-7" d="M2048.6,184.78s3.53-27,2.81-37.16l1.26-24.67s-4.86.69-9.31-5.06c0,0-3.41,2.7-9.43,0a1.11,1.11,0,0,1,0-2s5.21,2.7,9,0c0,0-2.73-2.7-5.09-17.9,0,0-3.14-1.35-6.55-6.08,0,0-1.31-2.26.79-1.8,0,0,2.62,4.85,5.5,5.18a40.93,40.93,0,0,1,0-11.15s1.31-5.74,1.83,0c0,0-1.05,17.9,2.36,23,0,0,1.59,13.17,10.88,13.85l1.45-25.33,2.08-13.51a76.61,76.61,0,0,1,2,8.78s3,42.89.24,47.62c0,0,11.67,1.36,12.46-22.29,0,0-3.67-1.35-6.29-7.43,0,0-.79-3.72,1.31-1.69,0,0,.52,5.07,5,6.76,0,0,1.83-3,0-12.16,0,0-1.83-8.78,1.83-1,0,0,1.31,9.12,0,15.88,0,0,9.17-.34,10.22-11.15,0,0,.52-6.76,1.57-0.34,0,0,1.4,12.13-11.79,13.51,0,0-1,10.81-5.24,17.57,0,0,3.93,2,7.6-4.73,0,0,3.49-6.38,1.57,1.76,0,0-.52,6.34-11.79,6a11.89,11.89,0,0,1-6.55,3.36s1.48,38.52-.57,44.94C2057.72,187.48,2053.84,190.18,2048.6,184.78Z"/></g><text class="cls-8" transform="translate(2022.75 83.06) scale(0.77 1)">2015</text><line class="cls-2" x1="2047.07" y1="214.16" x2="2052.07" y2="214.16"/><line class="cls-2" x1="2053.17" y1="214.16" x2="2058.17" y2="214.16"/><line class="cls-4" x1="2052.54" y1="220.99" x2="2052.54" y2="206.51"/><line class="cls-2" x1="2073.93" y1="211.41" x2="2078.93" y2="211.41"/><line class="cls-3" x1="2084.8" y1="211.41" x2="2160.07" y2="211.41"/><line class="cls-2" x1="2163.01" y1="211.41" x2="2168.01" y2="211.41"/></svg>