<svg id="Layer_2" data-name="Layer 2" xmlns="http://www.w3.org/2000/svg" viewBox="0 0 1524 238"><defs><style>.cls-1{fill:#303a09;}.cls-2,.cls-3,.cls-4,.cls-9{fill:none;stroke-width:1.5px;}.cls-2,.cls-3,.cls-9{stroke:#3e4225;stroke-linecap:square;}.cls-11,.cls-2,.cls-3,.cls-4,.cls-6,.cls-7,.cls-9{stroke-miterlimit:10;}.cls-3{stroke-dasharray:10.53 6.32;}.cls-4{stroke:#3f4425;}.cls-5{opacity:0.7;}.cls-6{fill:#899b23;stroke:#7d913f;}.cls-7{fill:#683d0f;stroke:#683d0f;}.cls-8{font-size:21px;fill:#5b4029;font-family:Candara;font-weight:700;}.cls-9{stroke-dasharray:7.89;}.cls-10{opacity:0.8;}.cls-11{fill:#6a992c;stroke:#6a992c;}</style></defs><title>timeline</title><line class="cls-1" x1="-6" y1="33.07" x2="94" y2="33.07"/><line class="cls-2" x1="11.74" y1="118.26" x2="16.74" y2="118.26"/><line class="cls-3" x1="23.06" y1="118.26" x2="70.46" y2="118.26"/><line class="cls-2" x1="73.62" y1="118.26" x2="78.62" y2="118.26"/><circle class="cls-4" cx="91.86" cy="119.76" r="8.17"/><g class="cls-5"><path class="cls-6" d="M91.06,83.5s-7.59,1.29-8.15-7c0,0-7.26.55-8.57-5.52,0,0-7.08-1.47-5-9.57,0,0-9.69-2.94-3.91-11.6,0,0-7.45-7,1.68-13.07,0,0-2.42-8.1,6-9.39,0,0,.93-6.07,6.71-5.71,0,0,4.1-4.82,9.13,0,0,0,3.91-5.14,9.31-.35,0,0,10.25-5.15,10.62,5,0,0,6.71-2,8.57,5.34,0,0,9.5-1.47,8.2,10.31,0,0,6.71,4.79,1.86,11.6,0,0,2.61,7.73-4.47,9.39a10.28,10.28,0,0,1-7.08,8.28s0.75,1.1-1.3,2c0,0,.37,7.73-11.92,7.18,0,0-1.11,2.94-6.79,2.39,0,0,1-21.72,0-30.18l-1.4-4.79a48.39,48.39,0,0,0-1.68,9.75Z"/><path class="cls-7" d="M89.06,103.75s2.51-14.72,2-20.25L92,70.06a8.79,8.79,0,0,1-6.62-2.76s-2.42,1.47-6.71,0c0,0-1.12-.55,0-1.1,0,0,3.7,1.47,6.41,0,0,0-1.94-1.47-3.62-9.75a12.6,12.6,0,0,1-4.66-3.31s-0.93-1.23.56-1c0,0,1.86,2.64,3.91,2.82a17.16,17.16,0,0,1,0-6.07s0.93-3.13,1.3,0c0,0-.75,9.75,1.68,12.52,0,0,1.13,7.18,7.74,7.55l1-13.8,1.48-7.36a33.69,33.69,0,0,1,1.4,4.79S98,76,96,78.53c0,0,8.3.74,8.86-12.14a8.38,8.38,0,0,1-4.47-4s-0.56-2,.93-0.92a4.78,4.78,0,0,0,3.54,3.68s1.3-1.66,0-6.63c0,0-1.3-4.79,1.3-.55,0,0,.93,5,0,8.65,0,0,6.52-.18,7.26-6.07,0,0,.37-3.68,1.12-0.18,0,0,1,6.61-8.38,7.36,0,0-.75,5.89-3.73,9.57,0,0,2.79,1.1,5.4-2.58,0,0,2.48-3.48,1.12,1,0,0-.37,3.46-8.38,3.27A9.33,9.33,0,0,1,96,80.74s1,21-.41,24.49C95.55,105.22,92.79,106.69,89.06,103.75Z"/></g><text class="cls-8" transform="translate(76.48 45.07)">2001</text><line class="cls-9" x1="87.98" y1="119.76" x2="95.87" y2="119.76"/><line class="cls-4" x1="91.86" y1="123.48" x2="91.86" y2="115.59"/><line class="cls-2" x1="107.07" y1="118.26" x2="112.07" y2="118.26"/><line class="cls-3" x1="118.39" y1="118.26" x2="165.8" y2="118.26"/><line class="cls-2" x1="168.96" y1="118.26" x2="173.96" y2="118.26"/><circle class="cls-4" cx="187.19" cy="119.76" r="8.17"/><line class="cls-9" x1="183.31" y1="119.76" x2="191.2" y2="119.76"/><line class="cls-4" x1="187.19" y1="123.48" x2="187.19" y2="115.59"/><line class="cls-2" x1="202.41" y1="118.26" x2="207.41" y2="118.26"/><line class="cls-3" x1="213.73" y1="118.26" x2="261.13" y2="118.26"/><line class="cls-2" x1="264.29" y1="118.26" x2="269.29" y2="118.26"/><circle class="cls-4" cx="282.53" cy="119.76" r="8.17"/><line class="cls-9" x1="278.64" y1="119.76" x2="286.53" y2="119.76"/><line class="cls-4" x1="282.53" y1="123.48" x2="282.53" y2="115.59"/><line class="cls-2" x1="295.76" y1="118.26" x2="300.76" y2="118.26"/><line class="cls-3" x1="307.08" y1="118.26" x2="354.49" y2="118.26"/><line class="cls-2" x1="357.65" y1="118.26" x2="362.65" y2="118.26"/><circle class="cls-4" cx="375.88" cy="119.76" r="8.17"/><line class="cls-9" x1="372" y1="119.76" x2="379.89" y2="119.76"/><line class="cls-4" x1="375.88" y1="123.48" x2="375.88" y2="115.59"/><line class="cls-2" x1="391.1" y1="118.26" x2="396.1" y2="118.26"/><line class="cls-3" x1="402.42" y1="118.26" x2="449.82" y2="118.26"/><line class="cls-2" x1="452.98" y1="118.26" x2="457.98" y2="118.26"/><circle class="cls-4" cx="471.22" cy="119.76" r="8.17"/><line class="cls-9" x1="467.33" y1="119.76" x2="475.22" y2="119.76"/><line class="cls-4" x1="471.22" y1="123.48" x2="471.22" y2="115.59"/><line class="cls-2" x1="486.43" y1="118.26" x2="491.43" y2="118.26"/><line class="cls-3" x1="497.75" y1="118.26" x2="545.15" y2="118.26"/><line class="cls-2" x1="548.31" y1="118.26" x2="553.31" y2="118.26"/><circle class="cls-4" cx="566.55" cy="119.76" r="8.17"/><line class="cls-9" x1="562.67" y1="119.76" x2="570.56" y2="119.76"/><line class="cls-4" x1="566.55" y1="123.48" x2="566.55" y2="115.59"/><line class="cls-2" x1="581.76" y1="118.26" x2="586.76" y2="118.26"/><line class="cls-3" x1="593.08" y1="118.26" x2="640.49" y2="118.26"/><line class="cls-2" x1="643.65" y1="118.26" x2="648.65" y2="118.26"/><circle class="cls-4" cx="661.88" cy="119.76" r="8.17"/><line class="cls-9" x1="658" y1="119.76" x2="665.89" y2="119.76"/><line class="cls-4" x1="661.88" y1="123.48" x2="661.88" y2="115.59"/><line class="cls-2" x1="677.1" y1="118.26" x2="682.1" y2="118.26"/><line class="cls-3" x1="688.42" y1="118.26" x2="735.82" y2="118.26"/><line class="cls-2" x1="738.98" y1="118.26" x2="743.98" y2="118.26"/><circle class="cls-4" cx="757.22" cy="119.76" r="8.17"/><line class="cls-9" x1="753.33" y1="119.76" x2="761.22" y2="119.76"/><line class="cls-4" x1="757.22" y1="123.48" x2="757.22" y2="115.59"/><g class="cls-5"><path class="cls-6" d="M284.26,83.86s-7.59,1.29-8.15-7c0,0-7.26.55-8.57-5.52,0,0-7.08-1.47-5-9.57,0,0-9.69-2.94-3.91-11.6,0,0-7.45-7,1.68-13.07,0,0-2.42-8.1,6-9.39,0,0,.93-6.07,6.71-5.71,0,0,4.1-4.82,9.13,0,0,0,3.91-5.14,9.31-.35,0,0,10.25-5.15,10.62,5,0,0,6.71-2,8.57,5.34,0,0,9.5-1.47,8.2,10.31,0,0,6.71,4.79,1.86,11.6,0,0,2.61,7.73-4.47,9.39a10.28,10.28,0,0,1-7.08,8.28s0.75,1.1-1.3,2c0,0,.37,7.73-11.92,7.18,0,0-1.11,2.94-6.79,2.39,0,0,1-21.72,0-30.18l-1.4-4.79A48.39,48.39,0,0,0,286,57.91Z"/><path class="cls-7" d="M282.26,104.11s2.51-14.72,2-20.25l0.89-13.44a8.79,8.79,0,0,1-6.62-2.76s-2.42,1.47-6.71,0c0,0-1.12-.55,0-1.1,0,0,3.7,1.47,6.41,0,0,0-1.94-1.47-3.62-9.75A12.6,12.6,0,0,1,270,53.49s-0.93-1.23.56-1c0,0,1.86,2.64,3.91,2.82a17.16,17.16,0,0,1,0-6.07s0.93-3.13,1.3,0c0,0-.75,9.75,1.68,12.52,0,0,1.13,7.18,7.74,7.55l1-13.8,1.48-7.36a33.69,33.69,0,0,1,1.4,4.79s2.12,23.37.17,25.95c0,0,8.3.74,8.86-12.14a8.38,8.38,0,0,1-4.47-4s-0.56-2,.93-0.92a4.78,4.78,0,0,0,3.54,3.68s1.3-1.66,0-6.63c0,0-1.3-4.79,1.3-.55,0,0,.93,5,0,8.65,0,0,6.52-.18,7.26-6.07,0,0,.37-3.68,1.12-0.18,0,0,1,6.61-8.38,7.36,0,0-.75,5.89-3.73,9.57,0,0,2.79,1.1,5.4-2.58,0,0,2.48-3.48,1.12,1,0,0-.37,3.46-8.38,3.27a9.33,9.33,0,0,1-4.66,1.83s1,21-.41,24.49C288.74,105.58,286,107.05,282.26,104.11Z"/></g><text class="cls-8" transform="translate(269.68 45.43)">2003</text><g class="cls-10"><path class="cls-11" d="M188.75,135.07s-12,18.74-12.74,21a25.07,25.07,0,0,0,6.37,0S170.27,171.3,169,174a22.77,22.77,0,0,0,6.25,0s-10,13.24-10.49,15.74a26.52,26.52,0,0,0,6.75,0s-10.74,18.74-13,23.73c0,0,21.73,1,27.48,0l0.25-5.75L191,208V214s15.24,0.69,28.73,0c0,0-10.24-19.68-13-23.68,0,0,4.5.25,6-.25,0,0-8.24-13.74-10-15.36a20.18,20.18,0,0,0,6.75,0S199,159.81,196,157.06a15.46,15.46,0,0,0,6.5,0S195.25,144.07,188.75,135.07Z"/><polygon class="cls-7" points="186.26 207.77 191 208.02 191 225.26 186.26 225.26 186.26 207.77"/></g><text class="cls-8" transform="translate(169.01 193.95)">2002</text><g class="cls-10"><path class="cls-11" d="M378.53,134.36s-12,18.74-12.74,21a25.07,25.07,0,0,0,6.37,0s-12.12,15.24-13.37,18a22.77,22.77,0,0,0,6.25,0s-10,13.24-10.49,15.74a26.52,26.52,0,0,0,6.75,0s-10.74,18.74-13,23.73c0,0,21.73,1,27.48,0l0.25-5.75,4.75,0.25v5.94s15.24,0.69,28.73,0c0,0-10.24-19.68-13-23.68,0,0,4.5.25,6-.25,0,0-8.24-13.74-10-15.36a20.18,20.18,0,0,0,6.75,0s-10.49-14.87-13.49-17.61a15.46,15.46,0,0,0,6.5,0S385,143.35,378.53,134.36Z"/><polygon class="cls-7" points="376.03 207.05 380.77 207.3 380.77 224.54 376.03 224.54 376.03 207.05"/></g><text class="cls-8" transform="translate(358.78 193.23)">2004</text><g class="cls-10"><path class="cls-11" d="M568.3,134.36s-12,18.74-12.74,21a25.07,25.07,0,0,0,6.37,0s-12.12,15.24-13.37,18a22.77,22.77,0,0,0,6.25,0s-10,13.24-10.49,15.74a26.52,26.52,0,0,0,6.75,0s-10.74,18.74-13,23.73c0,0,21.73,1,27.48,0l0.25-5.75,4.75,0.25v5.94s15.24,0.69,28.73,0c0,0-10.24-19.68-13-23.68,0,0,4.5.25,6-.25,0,0-8.24-13.74-10-15.36a20.18,20.18,0,0,0,6.75,0s-10.49-14.87-13.49-17.61a15.46,15.46,0,0,0,6.5,0S574.79,143.35,568.3,134.36Z"/><polygon class="cls-7" points="565.8 207.05 570.54 207.3 570.54 224.54 565.8 224.54 565.8 207.05"/></g><text class="cls-8" transform="translate(548.55 193.23)">2006</text><g class="cls-10"><path class="cls-11" d="M758.07,134.36s-12,18.74-12.74,21a25.07,25.07,0,0,0,6.37,0s-12.12,15.24-13.37,18a22.77,22.77,0,0,0,6.25,0s-10,13.24-10.49,15.74a26.52,26.52,0,0,0,6.75,0s-10.74,18.74-13,23.73c0,0,21.73,1,27.48,0l0.25-5.75,4.75,0.25v5.94s15.24,0.69,28.73,0c0,0-10.24-19.68-13-23.68,0,0,4.5.25,6-.25,0,0-8.24-13.74-10-15.36a20.18,20.18,0,0,0,6.75,0s-10.49-14.87-13.49-17.61a15.46,15.46,0,0,0,6.5,0S764.56,143.35,758.07,134.36Z"/><polygon class="cls-7" points="755.57 207.05 760.32 207.3 760.32 224.54 755.57 224.54 755.57 207.05"/></g><text class="cls-8" transform="translate(738.32 193.23)">2008</text><g class="cls-5"><path class="cls-6" d="M469.2,84.22s-7.59,1.29-8.15-7c0,0-7.26.55-8.57-5.52,0,0-7.08-1.47-5-9.57,0,0-9.69-2.94-3.91-11.6,0,0-7.45-7,1.68-13.07,0,0-2.42-8.1,6-9.39,0,0,.93-6.07,6.71-5.71,0,0,4.1-4.82,9.13,0,0,0,3.91-5.14,9.31-.35,0,0,10.25-5.15,10.62,5,0,0,6.71-2,8.57,5.34,0,0,9.5-1.47,8.2,10.31,0,0,6.71,4.79,1.86,11.6,0,0,2.61,7.73-4.47,9.39A10.28,10.28,0,0,1,494,71.89s0.75,1.1-1.3,2c0,0,.37,7.73-11.92,7.18,0,0-1.11,2.94-6.79,2.39,0,0,1-21.72,0-30.18l-1.4-4.79a48.39,48.39,0,0,0-1.68,9.75Z"/><path class="cls-7" d="M467.2,104.47s2.51-14.72,2-20.25l0.89-13.44A8.79,8.79,0,0,1,463.47,68s-2.42,1.47-6.71,0c0,0-1.12-.55,0-1.1,0,0,3.7,1.47,6.41,0,0,0-1.94-1.47-3.62-9.75a12.6,12.6,0,0,1-4.66-3.31s-0.93-1.23.56-1c0,0,1.86,2.64,3.91,2.82a17.16,17.16,0,0,1,0-6.07s0.93-3.13,1.3,0c0,0-.75,9.75,1.68,12.52,0,0,1.13,7.18,7.74,7.55l1-13.8,1.48-7.36A33.69,33.69,0,0,1,474,53.3s2.12,23.37.17,25.95c0,0,8.3.74,8.86-12.14a8.38,8.38,0,0,1-4.47-4s-0.56-2,.93-0.92A4.78,4.78,0,0,0,483,65.82s1.3-1.66,0-6.63c0,0-1.3-4.79,1.3-.55,0,0,.93,5,0,8.65,0,0,6.52-.18,7.26-6.07,0,0,.37-3.68,1.12-0.18,0,0,1,6.61-8.38,7.36,0,0-.75,5.89-3.73,9.57,0,0,2.79,1.1,5.4-2.58,0,0,2.48-3.48,1.12,1,0,0-.37,3.46-8.38,3.27a9.33,9.33,0,0,1-4.66,1.83s1,21-.41,24.49C473.68,105.94,470.92,107.41,467.2,104.47Z"/></g><text class="cls-8" transform="translate(454.61 45.78)">2005</text><g class="cls-5"><path class="cls-6" d="M661.09,84.08s-7.59,1.29-8.15-7c0,0-7.26.55-8.57-5.52,0,0-7.08-1.47-5-9.57,0,0-9.69-2.94-3.91-11.6,0,0-7.45-7,1.68-13.07,0,0-2.42-8.1,6-9.39,0,0,.93-6.07,6.71-5.71,0,0,4.1-4.82,9.13,0,0,0,3.91-5.14,9.31-.35,0,0,10.25-5.15,10.62,5,0,0,6.71-2,8.57,5.34,0,0,9.5-1.47,8.2,10.31,0,0,6.71,4.79,1.86,11.6,0,0,2.61,7.73-4.47,9.39a10.28,10.28,0,0,1-7.08,8.28s0.75,1.1-1.3,2c0,0,.37,7.73-11.92,7.18,0,0-1.11,2.94-6.79,2.39,0,0,1-21.72,0-30.18l-1.4-4.79a48.39,48.39,0,0,0-1.68,9.75Z"/><path class="cls-7" d="M659.09,104.33s2.51-14.72,2-20.25L662,70.64a8.79,8.79,0,0,1-6.62-2.76s-2.42,1.47-6.71,0c0,0-1.12-.55,0-1.1,0,0,3.7,1.47,6.41,0,0,0-1.94-1.47-3.62-9.75a12.6,12.6,0,0,1-4.66-3.31s-0.93-1.23.56-1c0,0,1.86,2.64,3.91,2.82a17.16,17.16,0,0,1,0-6.07s0.93-3.13,1.3,0c0,0-.75,9.75,1.68,12.52,0,0,1.13,7.18,7.74,7.55l1-13.8,1.48-7.36a33.69,33.69,0,0,1,1.4,4.79s2.12,23.37.17,25.95c0,0,8.3.74,8.86-12.14a8.38,8.38,0,0,1-4.47-4s-0.56-2,.93-0.92a4.78,4.78,0,0,0,3.54,3.68s1.3-1.66,0-6.63c0,0-1.3-4.79,1.3-.55,0,0,.93,5,0,8.65,0,0,6.52-.18,7.26-6.07,0,0,.37-3.68,1.12-0.18,0,0,1,6.61-8.38,7.36,0,0-.75,5.89-3.73,9.57,0,0,2.79,1.1,5.4-2.58,0,0,2.48-3.48,1.12,1,0,0-.37,3.46-8.38,3.27A9.33,9.33,0,0,1,666,81.31s1,21-.41,24.49C665.57,105.8,662.81,107.27,659.09,104.33Z"/></g><text class="cls-8" transform="translate(646.51 45.64)">2007</text><line class="cls-1" x1="753.21" y1="34.03" x2="853.21" y2="34.03"/><line class="cls-2" x1="770.95" y1="119.22" x2="775.95" y2="119.22"/><line class="cls-3" x1="782.27" y1="119.22" x2="829.68" y2="119.22"/><line class="cls-2" x1="832.84" y1="119.22" x2="837.84" y2="119.22"/><circle class="cls-4" cx="851.07" cy="120.72" r="8.17"/><g class="cls-5"><path class="cls-6" d="M850.27,84.46s-7.59,1.29-8.15-7c0,0-7.26.55-8.57-5.52,0,0-7.08-1.47-5-9.57,0,0-9.69-2.94-3.91-11.6,0,0-7.45-7,1.68-13.07,0,0-2.42-8.1,6-9.39,0,0,.93-6.07,6.71-5.71,0,0,4.1-4.82,9.13,0,0,0,3.91-5.14,9.31-.35,0,0,10.25-5.15,10.62,5,0,0,6.71-2,8.57,5.34,0,0,9.5-1.47,8.2,10.31,0,0,6.71,4.79,1.86,11.6,0,0,2.61,7.73-4.47,9.39a10.28,10.28,0,0,1-7.08,8.28s0.75,1.1-1.3,2c0,0,.37,7.73-11.92,7.18,0,0-1.11,2.94-6.79,2.39,0,0,1-21.72,0-30.18l-1.4-4.79A48.39,48.39,0,0,0,852,58.51Z"/><path class="cls-7" d="M848.27,104.71s2.51-14.72,2-20.25L851.17,71a8.79,8.79,0,0,1-6.62-2.76s-2.42,1.47-6.71,0c0,0-1.12-.55,0-1.1,0,0,3.7,1.47,6.41,0,0,0-1.94-1.47-3.62-9.75A12.6,12.6,0,0,1,836,54.1s-0.93-1.23.56-1c0,0,1.86,2.64,3.91,2.82a17.16,17.16,0,0,1,0-6.07s0.93-3.13,1.3,0c0,0-.75,9.75,1.68,12.52,0,0,1.13,7.18,7.74,7.55l1-13.8,1.48-7.36a33.69,33.69,0,0,1,1.4,4.79s2.12,23.37.17,25.95c0,0,8.3.74,8.86-12.14a8.38,8.38,0,0,1-4.47-4s-0.56-2,.93-0.92a4.78,4.78,0,0,0,3.54,3.68s1.3-1.66,0-6.63c0,0-1.3-4.79,1.3-.55,0,0,.93,5,0,8.65,0,0,6.52-.18,7.26-6.07,0,0,.37-3.68,1.12-0.18,0,0,1,6.61-8.38,7.36,0,0-.75,5.89-3.73,9.57,0,0,2.79,1.1,5.4-2.58,0,0,2.48-3.48,1.12,1,0,0-.37,3.46-8.38,3.27a9.33,9.33,0,0,1-4.66,1.83s1,21-.41,24.49C854.76,106.18,852,107.65,848.27,104.71Z"/></g><text class="cls-8" transform="translate(835.69 46.03)">2009</text><line class="cls-9" x1="847.19" y1="120.72" x2="855.08" y2="120.72"/><line class="cls-4" x1="851.07" y1="124.44" x2="851.07" y2="116.55"/><line class="cls-2" x1="867.76" y1="119.26" x2="872.76" y2="119.26"/><line class="cls-3" x1="879.08" y1="119.26" x2="926.49" y2="119.26"/><line class="cls-2" x1="929.65" y1="119.26" x2="934.65" y2="119.26"/><circle class="cls-4" cx="947.88" cy="120.76" r="8.17"/><line class="cls-9" x1="944" y1="120.76" x2="951.89" y2="120.76"/><line class="cls-4" x1="947.88" y1="124.48" x2="947.88" y2="116.59"/><g class="cls-10"><path class="cls-11" d="M949.44,136.07s-12,18.74-12.74,21a25.07,25.07,0,0,0,6.37,0S931,172.3,929.71,175a22.77,22.77,0,0,0,6.25,0s-10,13.24-10.49,15.74a26.52,26.52,0,0,0,6.75,0s-10.74,18.74-13,23.73c0,0,21.73,1,27.48,0l0.25-5.75,4.75,0.25V215s15.24,0.69,28.73,0c0,0-10.24-19.68-13-23.68,0,0,4.5.25,6-.25,0,0-8.24-13.74-10-15.36a20.18,20.18,0,0,0,6.75,0s-10.49-14.87-13.49-17.61a15.46,15.46,0,0,0,6.5,0S955.94,145.07,949.44,136.07Z"/><polygon class="cls-7" points="946.95 208.77 951.69 209.02 951.69 226.26 946.95 226.26 946.95 208.77"/></g><text class="cls-8" transform="translate(929.7 194.95)">2010</text><line class="cls-1" x1="946.03" y1="35.48" x2="1046.03" y2="35.48"/><line class="cls-2" x1="963.77" y1="120.67" x2="968.77" y2="120.67"/><line class="cls-3" x1="975.09" y1="120.67" x2="1022.49" y2="120.67"/><line class="cls-2" x1="1025.65" y1="120.67" x2="1030.65" y2="120.67"/><circle class="cls-4" cx="1043.89" cy="122.17" r="8.17"/><g class="cls-5"><path class="cls-6" d="M1043.09,85.92s-7.59,1.29-8.15-7c0,0-7.26.55-8.57-5.52,0,0-7.08-1.47-5-9.57,0,0-9.69-2.94-3.91-11.6,0,0-7.45-7,1.68-13.07,0,0-2.42-8.1,6-9.39,0,0,.93-6.07,6.71-5.71,0,0,4.1-4.82,9.13,0,0,0,3.91-5.14,9.31-.35,0,0,10.25-5.15,10.62,5,0,0,6.71-2,8.57,5.34,0,0,9.5-1.47,8.2,10.31,0,0,6.71,4.79,1.86,11.6,0,0,2.61,7.73-4.47,9.39a10.28,10.28,0,0,1-7.08,8.28s0.75,1.1-1.3,2c0,0,.37,7.73-11.92,7.18,0,0-1.11,2.94-6.79,2.39,0,0,1-21.72,0-30.18l-1.4-4.79a48.39,48.39,0,0,0-1.68,9.75Z"/><path class="cls-7" d="M1041.09,106.16s2.51-14.72,2-20.25L1044,72.48a8.79,8.79,0,0,1-6.62-2.76s-2.42,1.47-6.71,0c0,0-1.12-.55,0-1.1,0,0,3.7,1.47,6.41,0,0,0-1.94-1.47-3.62-9.75a12.6,12.6,0,0,1-4.66-3.31s-0.93-1.23.56-1c0,0,1.86,2.64,3.91,2.82a17.16,17.16,0,0,1,0-6.07s0.93-3.13,1.3,0c0,0-.75,9.75,1.68,12.52,0,0,1.13,7.18,7.74,7.55l1-13.8,1.48-7.36a33.69,33.69,0,0,1,1.4,4.79s2.12,23.37.17,25.95c0,0,8.3.74,8.86-12.14a8.38,8.38,0,0,1-4.47-4s-0.56-2,.93-0.92a4.78,4.78,0,0,0,3.54,3.68s1.3-1.66,0-6.63c0,0-1.3-4.79,1.3-.55,0,0,.93,5,0,8.65,0,0,6.52-.18,7.26-6.07,0,0,.37-3.68,1.12-0.18,0,0,1,6.61-8.38,7.36,0,0-.75,5.89-3.73,9.57,0,0,2.79,1.1,5.4-2.58,0,0,2.48-3.48,1.12,1,0,0-.37,3.46-8.38,3.27a9.33,9.33,0,0,1-4.66,1.83s1,21-.41,24.49C1047.58,107.64,1044.82,109.11,1041.09,106.16Z"/></g><text class="cls-8" transform="translate(1028.51 47.48)">2011</text><line class="cls-9" x1="1040.01" y1="122.17" x2="1047.9" y2="122.17"/><line class="cls-4" x1="1043.89" y1="125.89" x2="1043.89" y2="118"/><line class="cls-2" x1="1059.11" y1="120.67" x2="1064.11" y2="120.67"/><line class="cls-3" x1="1070.43" y1="120.67" x2="1117.83" y2="120.67"/><line class="cls-2" x1="1120.99" y1="120.67" x2="1125.99" y2="120.67"/><circle class="cls-4" cx="1139.23" cy="122.17" r="8.17"/><line class="cls-9" x1="1135.34" y1="122.17" x2="1143.23" y2="122.17"/><line class="cls-4" x1="1139.23" y1="125.89" x2="1139.23" y2="118"/><g class="cls-10"><path class="cls-11" d="M1140.79,137.49s-12,18.74-12.74,21a25.07,25.07,0,0,0,6.37,0s-12.12,15.24-13.37,18a22.77,22.77,0,0,0,6.25,0s-10,13.24-10.49,15.74a26.52,26.52,0,0,0,6.75,0s-10.74,18.74-13,23.73c0,0,21.73,1,27.48,0l0.25-5.75,4.75,0.25v5.94s15.24,0.69,28.73,0c0,0-10.24-19.68-13-23.68,0,0,4.5.25,6-.25,0,0-8.24-13.74-10-15.36a20.18,20.18,0,0,0,6.75,0S1151,162.22,1148,159.47a15.46,15.46,0,0,0,6.5,0S1147.28,146.48,1140.79,137.49Z"/><polygon class="cls-7" points="1138.29 210.19 1143.03 210.44 1143.03 227.67 1138.29 227.67 1138.29 210.19"/></g><text class="cls-8" transform="translate(1121.04 196.36)">2012</text><line class="cls-1" x1="1141.2" y1="35.29" x2="1241.2" y2="35.29"/><line class="cls-2" x1="1158.94" y1="120.48" x2="1163.94" y2="120.48"/><line class="cls-3" x1="1170.26" y1="120.48" x2="1217.67" y2="120.48"/><line class="cls-2" x1="1220.83" y1="120.48" x2="1225.83" y2="120.48"/><circle class="cls-4" cx="1239.06" cy="121.98" r="8.17"/><g class="cls-5"><path class="cls-6" d="M1238.26,85.72s-7.59,1.29-8.15-7c0,0-7.26.55-8.57-5.52,0,0-7.08-1.47-5-9.57,0,0-9.69-2.94-3.91-11.6,0,0-7.45-7,1.68-13.07,0,0-2.42-8.1,6-9.39,0,0,.93-6.07,6.71-5.71,0,0,4.1-4.82,9.13,0,0,0,3.91-5.14,9.31-.35,0,0,10.25-5.15,10.62,5,0,0,6.71-2,8.57,5.34,0,0,9.5-1.47,8.2,10.31,0,0,6.71,4.79,1.86,11.6,0,0,2.61,7.73-4.47,9.39a10.28,10.28,0,0,1-7.08,8.28s0.75,1.1-1.3,2c0,0,.37,7.73-11.92,7.18,0,0-1.11,2.94-6.79,2.39,0,0,1-21.72,0-30.18l-1.4-4.79a48.39,48.39,0,0,0-1.68,9.75Z"/><path class="cls-7" d="M1236.27,106s2.51-14.72,2-20.25l0.89-13.44a8.79,8.79,0,0,1-6.62-2.76s-2.42,1.47-6.71,0c0,0-1.12-.55,0-1.1,0,0,3.7,1.47,6.41,0,0,0-1.94-1.47-3.62-9.75a12.6,12.6,0,0,1-4.66-3.31s-0.93-1.23.56-1c0,0,1.86,2.64,3.91,2.82a17.16,17.16,0,0,1,0-6.07s0.93-3.13,1.3,0c0,0-.75,9.75,1.68,12.52,0,0,1.13,7.18,7.74,7.55l1-13.8,1.48-7.36a33.69,33.69,0,0,1,1.4,4.79s2.12,23.37.17,25.95c0,0,8.3.74,8.86-12.14a8.38,8.38,0,0,1-4.47-4s-0.56-2,.93-0.92a4.78,4.78,0,0,0,3.54,3.68s1.3-1.66,0-6.63c0,0-1.3-4.79,1.3-.55,0,0,.93,5,0,8.65,0,0,6.52-.18,7.26-6.07,0,0,.37-3.68,1.12-0.18,0,0,1,6.61-8.38,7.36,0,0-.75,5.89-3.73,9.57,0,0,2.79,1.1,5.4-2.58,0,0,2.48-3.48,1.12,1,0,0-.37,3.46-8.38,3.27a9.33,9.33,0,0,1-4.66,1.83s1,21-.41,24.49C1242.75,107.44,1240,108.91,1236.27,106Z"/></g><text class="cls-8" transform="translate(1223.68 47.29)">2013</text><line class="cls-9" x1="1235.18" y1="121.98" x2="1243.07" y2="121.98"/><line class="cls-4" x1="1239.06" y1="125.7" x2="1239.06" y2="117.81"/><line class="cls-2" x1="1254.28" y1="120.48" x2="1259.28" y2="120.48"/><line class="cls-3" x1="1265.6" y1="120.48" x2="1313" y2="120.48"/><line class="cls-2" x1="1316.16" y1="120.48" x2="1321.16" y2="120.48"/><circle class="cls-4" cx="1334.4" cy="121.98" r="8.17"/><line class="cls-9" x1="1330.51" y1="121.98" x2="1338.4" y2="121.98"/><line class="cls-4" x1="1334.4" y1="125.7" x2="1334.4" y2="117.81"/><g class="cls-10"><path class="cls-11" d="M1336,137.29s-12,18.74-12.74,21a25.07,25.07,0,0,0,6.37,0s-12.12,15.24-13.37,18a22.77,22.77,0,0,0,6.25,0s-10,13.24-10.49,15.74a26.52,26.52,0,0,0,6.75,0s-10.74,18.74-13,23.73c0,0,21.73,1,27.48,0l0.25-5.75,4.75,0.25v5.94s15.24,0.69,28.73,0c0,0-10.24-19.68-13-23.68,0,0,4.5.25,6-.25,0,0-8.24-13.74-10-15.36a20.18,20.18,0,0,0,6.75,0S1346.2,162,1343.2,159.28a15.46,15.46,0,0,0,6.5,0S1342.45,146.29,1336,137.29Z"/><polygon class="cls-7" points="1333.46 209.99 1338.2 210.24 1338.2 227.48 1333.46 227.48 1333.46 209.99"/></g><text class="cls-8" transform="translate(1316.21 196.17)">2014</text><line class="cls-1" x1="1332.71" y1="36.51" x2="1432.71" y2="36.51"/><line class="cls-2" x1="1350.45" y1="121.7" x2="1355.45" y2="121.7"/><line class="cls-3" x1="1361.77" y1="121.7" x2="1409.17" y2="121.7"/><line class="cls-2" x1="1412.33" y1="121.7" x2="1417.33" y2="121.7"/><circle class="cls-4" cx="1430.57" cy="123.2" r="8.17"/><g class="cls-5"><path class="cls-6" d="M1429.77,86.94s-7.59,1.29-8.15-7c0,0-7.26.55-8.57-5.52,0,0-7.08-1.47-5-9.57,0,0-9.69-2.94-3.91-11.6,0,0-7.45-7,1.68-13.07,0,0-2.42-8.1,6-9.39,0,0,.93-6.07,6.71-5.71,0,0,4.1-4.82,9.13,0,0,0,3.91-5.14,9.31-.35,0,0,10.25-5.15,10.62,5,0,0,6.71-2,8.57,5.34,0,0,9.5-1.47,8.2,10.31,0,0,6.71,4.79,1.86,11.6,0,0,2.61,7.73-4.47,9.39a10.28,10.28,0,0,1-7.08,8.28s0.75,1.1-1.3,2c0,0,.37,7.73-11.92,7.18,0,0-1.11,2.94-6.79,2.39,0,0,1-21.72,0-30.18l-1.4-4.79A48.39,48.39,0,0,0,1431.5,61Z"/><path class="cls-7" d="M1427.77,107.19s2.51-14.72,2-20.25l0.89-13.44a8.79,8.79,0,0,1-6.62-2.76s-2.42,1.47-6.71,0c0,0-1.12-.55,0-1.1,0,0,3.7,1.47,6.41,0,0,0-1.94-1.47-3.62-9.75a12.6,12.6,0,0,1-4.66-3.31s-0.93-1.23.56-1c0,0,1.86,2.64,3.91,2.82a17.16,17.16,0,0,1,0-6.07s0.93-3.13,1.3,0c0,0-.75,9.75,1.68,12.52,0,0,1.13,7.18,7.74,7.55l1-13.8,1.48-7.36a33.69,33.69,0,0,1,1.4,4.79s2.12,23.37.17,25.95c0,0,8.3.74,8.86-12.14a8.38,8.38,0,0,1-4.47-4s-0.56-2,.93-0.92a4.78,4.78,0,0,0,3.54,3.68s1.3-1.66,0-6.63c0,0-1.3-4.79,1.3-.55,0,0,.93,5,0,8.65,0,0,6.52-.18,7.26-6.07,0,0,.37-3.68,1.12-0.18,0,0,1,6.61-8.38,7.36,0,0-.75,5.89-3.73,9.57,0,0,2.79,1.1,5.4-2.58,0,0,2.48-3.48,1.12,1,0,0-.37,3.46-8.38,3.27a9.33,9.33,0,0,1-4.66,1.83s1,21-.41,24.49C1434.26,108.66,1431.5,110.13,1427.77,107.19Z"/></g><text class="cls-8" transform="translate(1415.19 48.51)">2015</text><line class="cls-9" x1="1426.69" y1="123.2" x2="1434.58" y2="123.2"/><line class="cls-4" x1="1430.57" y1="126.92" x2="1430.57" y2="119.03"/><line class="cls-2" x1="1445.78" y1="121.7" x2="1450.78" y2="121.7"/><line class="cls-3" x1="1457.1" y1="121.7" x2="1504.51" y2="121.7"/><line class="cls-2" x1="1507.67" y1="121.7" x2="1512.67" y2="121.7"/></svg>