<svg id="Layer_1" data-name="Layer 1" xmlns="http://www.w3.org/2000/svg" width="31.54" height="49.66" viewBox="0 0 31.54 49.66">
  <defs>
    <style>
      .cls-1 {
        fill: #2d6733;
        stroke: #2d6733;
      }

      .cls-1, .cls-2 {
        stroke-miterlimit: 10;
      }

      .cls-2 {
        fill: #683f18;
        stroke: #683f18;
      }
    </style>
  </defs>
  <title>Untitled-1</title>
  <g>
    <path class="cls-1" d="M14.07,36.3s-6.71-1.14-5.42-7.56c0,0,1.14-3.28-.86-4.14a5.4,5.4,0,0,1-3.43-3.14s-3.28-7,4.85-8.28c0,0-2-7.14,4.85-7.85,0,0,1-.43,2.57.71a3.29,3.29,0,0,1,1.14.43A4.71,4.71,0,0,1,19.5,9.33a2.88,2.88,0,0,0,1.28,1.43s2.14-.29,3,1.14c0,0,1.28.62,2.14,3.66,0,0,1.57,6.8-4,10.42,0,0,4.28,11.75-6,10.32L15.64,27.6l-1.57-.14V36.3Z"/>
    <polygon class="cls-2" points="14.07 27.45 15.64 27.6 15.64 45.73 14.07 45.73 14.07 27.45"/>
  </g>
</svg>
