<svg id="Layer_1" data-name="Layer 1" xmlns="http://www.w3.org/2000/svg" width="520" height="430" viewBox="0 0 520 430">
  <defs>
    <style>
      .cls-1 {
        fill: none;
        stroke: #000;
      }

      .cls-1, .cls-3 {
        stroke-miterlimit: 10;
      }

      .cls-2 {
        font-size: 20.01px;
        font-family: Candara;
      }

      .cls-3 {
        fill: #7f5939;
        stroke: #7f5939;
      }
    </style>
  </defs>
  <title>bar9</title>
  <g>
    <line class="cls-1" x1="63" y1="400.5" x2="490" y2="400.5"/>
    <g>
      <line class="cls-1" x1="63.5" y1="400" x2="63.5" y2="391"/>
      <line class="cls-1" x1="91.5" y1="400" x2="91.5" y2="391"/>
      <line class="cls-1" x1="120.5" y1="400" x2="120.5" y2="391"/>
      <line class="cls-1" x1="148.5" y1="400" x2="148.5" y2="391"/>
      <line class="cls-1" x1="177.5" y1="400" x2="177.5" y2="391"/>
      <line class="cls-1" x1="205.5" y1="400" x2="205.5" y2="391"/>
      <line class="cls-1" x1="234.5" y1="400" x2="234.5" y2="391"/>
      <line class="cls-1" x1="262.5" y1="400" x2="262.5" y2="391"/>
      <line class="cls-1" x1="290.5" y1="400" x2="290.5" y2="391"/>
      <line class="cls-1" x1="319.5" y1="400" x2="319.5" y2="391"/>
      <line class="cls-1" x1="347.5" y1="400" x2="347.5" y2="391"/>
      <line class="cls-1" x1="376.5" y1="400" x2="376.5" y2="391"/>
      <line class="cls-1" x1="404.5" y1="400" x2="404.5" y2="391"/>
      <line class="cls-1" x1="433.5" y1="400" x2="433.5" y2="391"/>
      <line class="cls-1" x1="461.5" y1="400" x2="461.5" y2="391"/>
      <line class="cls-1" x1="490.5" y1="400" x2="490.5" y2="391"/>
    </g>
  </g>
  <g>
    <g>
      <text class="cls-2" transform="translate(45.62 407.57)">0</text>
      <text class="cls-2" transform="translate(13.91 334.41)">3000</text>
      <text class="cls-2" transform="translate(12.59 261.24)">6000</text>
      <text class="cls-2" transform="translate(12.65 188.08)">9000</text>
      <text class="cls-2" transform="translate(7.39 114.91)">12000</text>
      <text class="cls-2" transform="translate(6.8 41.75)">15000</text>
    </g>
    <line class="cls-1" x1="63.5" y1="400" x2="63.5" y2="34"/>
    <g>
      <line class="cls-1" x1="63" y1="400.5" x2="74" y2="400.5"/>
      <line class="cls-1" x1="63" y1="326.5" x2="74" y2="326.5"/>
      <line class="cls-1" x1="63" y1="253.5" x2="74" y2="253.5"/>
      <line class="cls-1" x1="63" y1="180.5" x2="74" y2="180.5"/>
      <line class="cls-1" x1="63" y1="107.5" x2="74" y2="107.5"/>
      <line class="cls-1" x1="63" y1="34.5" x2="74" y2="34.5"/>
    </g>
  </g>
  <g>
    <rect class="cls-3" x="67.5" y="371.5" width="20" height="29"/>
    <rect class="cls-3" x="95.5" y="391.5" width="21" height="9"/>
    <polygon class="cls-3" points="124.19 400.5 144.69 400.5 144.69 400.5 124.19 400.5 124.19 400.5"/>
    <rect class="cls-3" x="152.5" y="371.5" width="21" height="29"/>
    <rect class="cls-3" x="181.5" y="368.5" width="20" height="32"/>
    <rect class="cls-3" x="209.5" y="298.5" width="21" height="102"/>
    <rect class="cls-3" x="238.5" y="214.5" width="20" height="186"/>
    <rect class="cls-3" x="266.5" y="117.5" width="21" height="283"/>
    <rect class="cls-3" x="294.5" y="189.5" width="21" height="211"/>
    <rect class="cls-3" x="323.5" y="349.5" width="20" height="51"/>
    <rect class="cls-3" x="351.5" y="62.5" width="21" height="338"/>
    <rect class="cls-3" x="380.5" y="134.5" width="20" height="266"/>
    <rect class="cls-3" x="408.5" y="269.5" width="21" height="131"/>
    <rect class="cls-3" x="437.5" y="78.5" width="20" height="322"/>
    <rect class="cls-3" x="465.5" y="206.5" width="21" height="194"/>
  </g>
  <g>
    <text class="cls-2" transform="translate(462.71 420.79)">15<tspan x="16.83" y="0">&apos;</tspan><tspan x="21.52" y="0">&apos;</tspan></text>
    <text class="cls-2" transform="translate(433.82 420.79)">14<tspan x="17.67" y="0">&apos;</tspan><tspan x="22.36" y="0">&apos;</tspan></text>
    <text class="cls-2" transform="translate(405.83 420.79)">13<tspan x="16.72" y="0">&apos;</tspan><tspan x="21.41" y="0">&apos;</tspan></text>
    <text class="cls-2" transform="translate(377.61 420.79)">12<tspan x="16.24" y="0">&apos;</tspan><tspan x="20.93" y="0">&apos;</tspan></text>
    <text class="cls-2" transform="translate(350.27 420.79)">11<tspan x="13.99" y="0">&apos;</tspan><tspan x="18.68" y="0">&apos;</tspan></text>
    <text class="cls-2" transform="translate(319.8 420.79)">10<tspan x="17.99" y="0">&apos;</tspan><tspan x="22.68" y="0">&apos;</tspan></text>
    <text class="cls-2" transform="translate(289.35 420.79)">09<tspan x="21.97" y="0">&apos;</tspan><tspan x="26.66" y="0">&apos;</tspan></text>
    <text class="cls-2" transform="translate(260.87 420.79)">08<tspan x="22.01" y="0">&apos;</tspan><tspan x="26.7" y="0">&apos;</tspan></text>
    <text class="cls-2" transform="translate(233.18 420.79)">07<tspan x="20.45" y="0">&apos;</tspan><tspan x="25.14" y="0">&apos;</tspan></text>
    <text class="cls-2" transform="translate(203.93 420.79)">06<tspan x="22.04" y="0">&apos;</tspan><tspan x="26.73" y="0">&apos;</tspan></text>
    <text class="cls-2" transform="translate(176.07 420.79)">05<tspan x="20.82" y="0">&apos;</tspan><tspan x="25.52" y="0">&apos;</tspan></text>
    <text class="cls-2" transform="translate(147.18 420.79)">04<tspan x="21.67" y="0">&apos;</tspan><tspan x="26.36" y="0">&apos;</tspan></text>
    <text class="cls-2" transform="translate(121.54 420.79)">03&apos;</text>
    <text class="cls-2" transform="translate(90.97 420.79)">02<tspan x="20.24" y="0">&apos;</tspan><tspan x="24.93" y="0">&apos;</tspan></text>
    <text class="cls-2" transform="translate(63.63 420.79)">01<tspan x="17.99" y="0">&apos;</tspan><tspan x="22.68" y="0">&apos;</tspan></text>
  </g>
</svg>
